<?xml version="1.0" standalone="no"?>
<!DOCTYPE svg PUBLIC "-//W3C//DTD SVG 1.1//EN" "http://www.w3.org/Graphics/SVG/1.1/DTD/svg11.dtd" >
<svg>
<metadata>
Created by FontForge 20090622 at Sun Aug 30 04:47:34 2020
 By deploy user
Created by total FontGeek, generated by Fontstruct. Licensed under CC BY SA.
</metadata>
<defs>
<font id="NBP-Informa-FiveSix" horiz-adv-x="896" >
  <font-face 
    font-family="NBP Informa FiveSix"
    font-weight="400"
    font-stretch="normal"
    units-per-em="2048"
    panose-1="0 0 4 0 0 0 0 0 0 0"
    ascent="1638"
    descent="-410"
    x-height="768"
    cap-height="1024"
    bbox="0 -256 1024 1408"
    underline-thickness="51"
    underline-position="127"
    unicode-range="U+0020-U+FF40"
  />
<missing-glyph horiz-adv-x="12" 
 />
    <glyph glyph-name=".notdef" horiz-adv-x="12" 
 />
    <glyph glyph-name="glyph1" horiz-adv-x="128" 
 />
    <glyph glyph-name="glyph2" horiz-adv-x="256" 
 />
    <glyph glyph-name="space" unicode=" " horiz-adv-x="768" 
 />
    <glyph glyph-name="exclam" unicode="!" horiz-adv-x="384" 
d="M0 0v128h128v-128h-128zM0 384v640h128v-640h-128z" />
    <glyph glyph-name="quotedbl" unicode="&#x22;" horiz-adv-x="640" 
d="M0 640v384h128v-384h-128zM256 640v384h128v-384h-128z" />
    <glyph glyph-name="numbersign" unicode="#" 
d="M384 384v256h-128v-256h128zM128 0v256h-128v128h128v256h-128v128h128v256h128v-256h128v256h128v-256h128v-128h-128v-256h128v-128h-128v-256h-128v256h-128v-256h-128z" />
    <glyph glyph-name="dollar" unicode="$" 
d="M0 128v128h128v-128h-128zM512 128v256h128v-256h-128zM0 512v256h128v-256h-128zM512 640v128h128v-128h-128zM256 -128v128h-128v128h128v256h-128v128h128v256h-128v128h128v128h128v-128h128v-128h-128v-256h128v-128h-128v-256h128v-128h-128v-128h-128z" />
    <glyph glyph-name="percent" unicode="%" 
d="M0 128v128h128v-128h-128zM384 0v256h256v-256h-256zM128 256v128h128v-128h-128zM256 384v128h128v-128h-128zM384 512v128h128v-128h-128zM512 640v128h128v-128h-128zM0 640v256h256v-256h-256z" />
    <glyph glyph-name="ampersand" unicode="&#x26;" horiz-adv-x="1024" 
d="M128 0v128h384v-128h-384zM640 0v128h128v-128h-128zM512 128v128h128v-128h-128zM384 256v128h128v-128h-128zM640 256v128h128v-128h-128zM0 128v384h128v-384h-128zM256 384v128h128v-128h-128zM128 512v128h128v-128h-128zM256 640v128h128v-128h-128zM0 640v256h128
v-256h-128zM384 768v128h128v-128h-128zM128 896v128h256v-128h-256z" />
    <glyph glyph-name="quotesingle" unicode="'" horiz-adv-x="512" 
d="M0 640v128h128v-128h-128zM128 768v128h-128v128h256v-256h-128z" />
    <glyph glyph-name="parenleft" unicode="(" horiz-adv-x="640" 
d="M256 0v128h128v-128h-128zM128 128v128h128v-128h-128zM0 256v512h128v-512h-128zM128 768v128h128v-128h-128zM256 896v128h128v-128h-128z" />
    <glyph glyph-name="parenright" unicode=")" horiz-adv-x="640" 
d="M0 0v128h128v-128h-128zM128 128v128h128v-128h-128zM256 256v512h128v-512h-128zM128 768v128h128v-128h-128zM0 896v128h128v-128h-128z" />
    <glyph glyph-name="asterisk" unicode="*" 
d="M128 128v256h128v-256h-128zM384 128v256h128v-256h-128zM256 384v128h128v-128h-128zM0 512v128h256v-128h-256zM384 512v128h256v-128h-256zM256 640v256h128v-256h-128z" />
    <glyph glyph-name="plus" unicode="+" 
d="M256 128v256h-256v128h256v256h128v-256h256v-128h-256v-256h-128z" />
    <glyph glyph-name="comma" unicode="," horiz-adv-x="512" 
d="M0 -128v128h128v-128h-128zM128 0v128h-128v128h256v-256h-128z" />
    <glyph glyph-name="hyphen" unicode="-" 
d="M0 384v128h640v-128h-640z" />
    <glyph glyph-name="period" unicode="." horiz-adv-x="384" 
d="M0 0v128h128v-128h-128z" />
    <glyph glyph-name="slash" unicode="/" horiz-adv-x="768" 
d="M0 0v256h128v-256h-128zM128 256v256h128v-256h-128zM256 512v256h128v-256h-128zM384 768v256h128v-256h-128z" />
    <glyph glyph-name="zero" unicode="0" 
d="M128 0v128h384v-128h-384zM0 128v640h128v-640h-128zM512 128v640h128v-640h-128zM128 768v128h384v-128h-384z" />
    <glyph glyph-name="one" unicode="1" horiz-adv-x="512" 
d="M128 0v640h-128v128h128v128h128v-896h-128z" />
    <glyph glyph-name="two" unicode="2" 
d="M0 0v128h128v128h128v-128h384v-128h-640zM256 256v128h128v-128h-128zM384 384v128h128v-128h-128zM0 640v128h128v-128h-128zM512 512v256h128v-256h-128zM128 768v128h384v-128h-384z" />
    <glyph glyph-name="three" unicode="3" 
d="M128 0v128h384v-128h-384zM0 128v128h128v-128h-128zM512 128v256h128v-256h-128zM256 384v128h256v-128h-256zM0 640v128h128v-128h-128zM512 512v256h128v-256h-128zM128 768v128h384v-128h-384z" />
    <glyph glyph-name="four" unicode="4" 
d="M128 512v128h128v-128h-128zM384 0v256h-384v256h128v-128h256v256h-128v128h128v128h128v-512h128v-128h-128v-256h-128z" />
    <glyph glyph-name="five" unicode="5" 
d="M0 0v128h512v-128h-512zM512 128v256h128v-256h-128zM0 384v512h640v-128h-512v-256h384v-128h-512z" />
    <glyph glyph-name="six" unicode="6" 
d="M128 0v128h384v-128h-384zM512 128v256h128v-256h-128zM0 128v512h128v-128h384v-128h-384v-256h-128zM128 640v128h128v-128h-128zM256 768v128h256v-128h-256z" />
    <glyph glyph-name="seven" unicode="7" 
d="M256 0v384h128v-384h-128zM384 384v256h128v-256h-128zM512 640v128h-512v128h640v-256h-128z" />
    <glyph glyph-name="eight" unicode="8" 
d="M128 0v128h384v-128h-384zM0 128v256h128v-256h-128zM512 128v256h128v-256h-128zM128 384v128h384v-128h-384zM0 512v256h128v-256h-128zM512 512v256h128v-256h-128zM128 768v128h384v-128h-384z" />
    <glyph glyph-name="nine" unicode="9" 
d="M128 0v128h256v-128h-256zM384 128v128h128v-128h-128zM0 512v256h128v-256h-128zM512 256v128h-384v128h384v256h128v-512h-128zM128 768v128h384v-128h-384z" />
    <glyph glyph-name="colon" unicode=":" horiz-adv-x="512" 
d="M0 128v256h256v-256h-256zM0 640v256h256v-256h-256z" />
    <glyph glyph-name="semicolon" unicode=";" horiz-adv-x="512" 
d="M0 0v128h128v-128h-128zM128 128v128h-128v128h256v-256h-128zM0 640v256h256v-256h-256z" />
    <glyph glyph-name="less" unicode="&#x3c;" horiz-adv-x="768" 
d="M384 0v128h128v-128h-128zM256 128v128h128v-128h-128zM128 256v128h128v-128h-128zM0 384v128h128v-128h-128zM128 512v128h128v-128h-128zM256 640v128h128v-128h-128zM384 768v128h128v-128h-128z" />
    <glyph glyph-name="equal" unicode="=" 
d="M0 256v128h640v-128h-640zM0 512v128h640v-128h-640z" />
    <glyph glyph-name="greater" unicode="&#x3e;" horiz-adv-x="768" 
d="M0 0v128h128v-128h-128zM128 128v128h128v-128h-128zM256 256v128h128v-128h-128zM384 384v128h128v-128h-128zM256 512v128h128v-128h-128zM128 640v128h128v-128h-128zM0 768v128h128v-128h-128z" />
    <glyph glyph-name="question" unicode="?" 
d="M256 0v128h128v-128h-128zM256 384v256h256v-128h-128v-128h-128zM0 768v128h128v-128h-128zM512 640v256h128v-256h-128zM128 896v128h384v-128h-384z" />
    <glyph glyph-name="at" unicode="@" 
d="M128 0v128h512v-128h-512zM256 384v256h128v-256h-128zM0 128v768h128v-768h-128zM384 256v128h128v256h-128v128h128v128h128v-640h-256zM128 896v128h384v-128h-384z" />
    <glyph glyph-name="A" unicode="A" 
d="M0 0v768h128v-256h384v256h128v-768h-128v384h-384v-384h-128zM128 768v128h128v-128h-128zM384 768v128h128v-128h-128zM256 896v128h128v-128h-128z" />
    <glyph glyph-name="B" unicode="B" 
d="M512 128v384h128v-384h-128zM512 640v256h128v-256h-128zM0 0v1024h512v-128h-384v-256h384v-128h-384v-384h384v-128h-512z" />
    <glyph glyph-name="C" unicode="C" 
d="M128 0v128h384v-128h-384zM512 128v128h128v-128h-128zM0 128v768h128v-768h-128zM512 768v128h128v-128h-128zM128 896v128h384v-128h-384z" />
    <glyph glyph-name="D" unicode="D" 
d="M384 128v128h128v-128h-128zM512 256v512h128v-512h-128zM384 768v128h128v-128h-128zM0 0v1024h384v-128h-256v-768h256v-128h-384z" />
    <glyph glyph-name="E" unicode="E" 
d="M0 0v1024h640v-128h-512v-256h384v-128h-384v-384h512v-128h-640z" />
    <glyph glyph-name="F" unicode="F" 
d="M0 0v1024h640v-128h-512v-256h384v-128h-384v-512h-128z" />
    <glyph glyph-name="G" unicode="G" 
d="M128 0v128h256v-128h-256zM512 0v128h-128v128h128v256h-256v128h384v-640h-128zM0 128v768h128v-768h-128zM512 768v128h128v-128h-128zM128 896v128h384v-128h-384z" />
    <glyph glyph-name="H" unicode="H" 
d="M0 0v1024h128v-384h384v384h128v-1024h-128v512h-384v-512h-128z" />
    <glyph glyph-name="I" unicode="I" horiz-adv-x="640" 
d="M0 0v128h128v768h-128v128h384v-128h-128v-768h128v-128h-384z" />
    <glyph glyph-name="J" unicode="J" 
d="M128 0v128h384v-128h-384zM0 128v256h128v-256h-128zM512 128v896h128v-896h-128z" />
    <glyph glyph-name="K" unicode="K" 
d="M512 0v256h128v-256h-128zM384 256v256h128v-256h-128zM256 512v128h128v-128h-128zM384 640v128h128v-128h-128zM0 0v1024h128v-512h128v-128h-128v-384h-128zM512 768v256h128v-256h-128z" />
    <glyph glyph-name="L" unicode="L" 
d="M0 0v1024h128v-896h512v-128h-640z" />
    <glyph glyph-name="M" unicode="M" 
d="M256 384v256h128v-256h-128zM0 0v1024h128v-256h128v-128h-128v-640h-128zM512 0v640h-128v128h128v256h128v-1024h-128z" />
    <glyph glyph-name="N" unicode="N" 
d="M256 512v128h128v-128h-128zM0 0v1024h128v-256h128v-128h-128v-640h-128zM512 0v384h-128v128h128v512h128v-1024h-128z" />
    <glyph glyph-name="O" unicode="O" 
d="M128 0v128h384v-128h-384zM0 128v768h128v-768h-128zM512 128v768h128v-768h-128zM128 896v128h384v-128h-384z" />
    <glyph glyph-name="P" unicode="P" 
d="M512 512v384h128v-384h-128zM0 0v1024h512v-128h-384v-384h384v-128h-384v-384h-128z" />
    <glyph glyph-name="Q" unicode="Q" 
d="M128 0v128h256v-128h-256zM512 0v128h128v-128h-128zM384 128v128h128v-128h-128zM256 256v128h128v-128h-128zM0 128v768h128v-768h-128zM512 256v640h128v-640h-128zM128 896v128h384v-128h-384z" />
    <glyph glyph-name="R" unicode="R" 
d="M512 0v384h128v-384h-128zM512 512v384h128v-384h-128zM0 0v1024h512v-128h-384v-384h384v-128h-384v-384h-128z" />
    <glyph glyph-name="S" unicode="S" 
d="M128 0v128h384v-128h-384zM0 128v128h128v-128h-128zM512 128v384h128v-384h-128zM128 512v128h384v-128h-384zM0 640v256h128v-256h-128zM512 768v128h128v-128h-128zM128 896v128h384v-128h-384z" />
    <glyph glyph-name="T" unicode="T" 
d="M256 0v896h-256v128h640v-128h-256v-896h-128z" />
    <glyph glyph-name="U" unicode="U" 
d="M128 0v128h384v-128h-384zM0 128v896h128v-896h-128zM512 128v896h128v-896h-128z" />
    <glyph glyph-name="V" unicode="V" 
d="M256 0v256h128v-256h-128zM128 256v256h128v-256h-128zM384 256v256h128v-256h-128zM0 512v512h128v-512h-128zM512 512v512h128v-512h-128z" />
    <glyph glyph-name="W" unicode="W" 
d="M128 0v256h128v-256h-128zM384 0v256h128v-256h-128zM256 256v384h128v-384h-128zM0 256v768h128v-768h-128zM512 256v768h128v-768h-128z" />
    <glyph glyph-name="X" unicode="X" 
d="M0 0v256h128v-256h-128zM512 0v256h128v-256h-128zM128 256v128h128v-128h-128zM384 256v128h128v-128h-128zM256 384v256h128v-256h-128zM128 640v128h128v-128h-128zM384 640v128h128v-128h-128zM0 768v256h128v-256h-128zM512 768v256h128v-256h-128z" />
    <glyph glyph-name="Y" unicode="Y" 
d="M256 0v640h128v-640h-128zM128 640v128h128v-128h-128zM384 640v128h128v-128h-128zM0 768v256h128v-256h-128zM512 768v256h128v-256h-128z" />
    <glyph glyph-name="Z" unicode="Z" 
d="M0 0v384h128v-256h512v-128h-640zM128 384v128h128v-128h-128zM256 512v128h128v-128h-128zM384 640v128h128v-128h-128zM512 768v128h-512v128h640v-256h-128z" />
    <glyph glyph-name="bracketleft" unicode="[" horiz-adv-x="512" 
d="M0 0v1024h256v-128h-128v-768h128v-128h-256z" />
    <glyph glyph-name="backslash" unicode="\" horiz-adv-x="768" 
d="M384 0v256h128v-256h-128zM256 256v256h128v-256h-128zM128 512v256h128v-256h-128zM0 768v256h128v-256h-128z" />
    <glyph glyph-name="bracketright" unicode="]" horiz-adv-x="512" 
d="M0 0v128h128v768h-128v128h256v-1024h-256z" />
    <glyph glyph-name="asciicircum" unicode="^" 
d="M0 640v128h128v-128h-128zM512 640v128h128v-128h-128zM128 768v128h128v-128h-128zM384 768v128h128v-128h-128zM256 896v128h128v-128h-128z" />
    <glyph glyph-name="underscore" unicode="_" 
d="M0 0v128h640v-128h-640z" />
    <glyph glyph-name="grave" unicode="`" horiz-adv-x="640" 
d="M128 768v128h-128v128h256v-128h128v-128h-256z" />
    <glyph glyph-name="a" unicode="a" horiz-adv-x="1024" 
d="M128 0v128h256v-128h-256zM640 0v128h128v-128h-128zM0 128v256h128v-256h-128zM384 128v128h128v128h-384v128h384v128h128v-512h-256zM128 640v128h384v-128h-384z" />
    <glyph glyph-name="b" unicode="b" 
d="M256 0v128h256v-128h-256zM512 128v512h128v-512h-128zM256 640v128h256v-128h-256zM0 0v1024h128v-384h128v-128h-128v-256h128v-128h-128v-128h-128z" />
    <glyph glyph-name="c" unicode="c" 
d="M128 0v128h384v-128h-384zM512 128v128h128v-128h-128zM0 128v512h128v-512h-128zM512 512v128h128v-128h-128zM128 640v128h384v-128h-384z" />
    <glyph glyph-name="d" unicode="d" 
d="M128 0v128h256v-128h-256zM0 128v512h128v-512h-128zM128 640v128h256v-128h-256zM512 0v128h-128v128h128v256h-128v128h128v384h128v-1024h-128z" />
    <glyph glyph-name="e" unicode="e" 
d="M128 0v128h512v-128h-512zM0 128v512h128v-128h384v128h128v-256h-512v-256h-128zM128 640v128h384v-128h-384z" />
    <glyph glyph-name="f" unicode="f" horiz-adv-x="768" 
d="M128 0v640h-128v128h128v128h128v-128h256v-128h-256v-640h-128zM256 896v128h256v-128h-256z" />
    <glyph glyph-name="g" unicode="g" 
d="M128 -256v128h384v-128h-384zM128 0v128h256v-128h-256zM0 128v512h128v-512h-128zM128 640v128h256v-128h-256zM512 -128v256h-128v128h128v256h-128v128h128v128h128v-896h-128z" />
    <glyph glyph-name="h" unicode="h" 
d="M512 0v640h128v-640h-128zM256 640v128h256v-128h-256zM0 0v1024h128v-384h128v-128h-128v-512h-128z" />
    <glyph glyph-name="i" unicode="i" horiz-adv-x="384" 
d="M0 0v768h128v-768h-128zM0 896v128h128v-128h-128z" />
    <glyph glyph-name="j" unicode="j" horiz-adv-x="640" 
d="M0 -256v128h256v-128h-256zM256 -128v896h128v-896h-128zM256 896v128h128v-128h-128z" />
    <glyph glyph-name="k" unicode="k" 
d="M512 0v128h128v-128h-128zM384 128v128h128v-128h-128zM384 512v128h128v-128h-128zM512 640v128h128v-128h-128zM0 0v1024h128v-640h128v128h128v-256h-256v-256h-128z" />
    <glyph glyph-name="l" unicode="l" horiz-adv-x="384" 
d="M0 0v1024h128v-1024h-128z" />
    <glyph glyph-name="m" unicode="m" 
d="M256 0v640h128v-640h-128zM512 0v640h128v-640h-128zM0 0v768h256v-128h-128v-640h-128zM384 640v128h128v-128h-128z" />
    <glyph glyph-name="n" unicode="n" 
d="M512 0v640h128v-640h-128zM0 0v768h128v-128h128v-128h-128v-512h-128zM256 640v128h256v-128h-256z" />
    <glyph glyph-name="o" unicode="o" 
d="M128 0v128h384v-128h-384zM0 128v512h128v-512h-128zM512 128v512h128v-512h-128zM128 640v128h384v-128h-384z" />
    <glyph glyph-name="p" unicode="p" 
d="M256 0v128h256v-128h-256zM512 128v512h128v-512h-128zM0 -256v1024h128v-128h128v-128h-128v-256h128v-128h-128v-384h-128zM256 640v128h256v-128h-256z" />
    <glyph glyph-name="q" unicode="q" 
d="M128 0v128h256v-128h-256zM0 128v512h128v-512h-128zM128 640v128h256v-128h-256zM512 -256v384h-128v128h128v256h-128v128h128v128h128v-1024h-128z" />
    <glyph glyph-name="r" unicode="r" horiz-adv-x="768" 
d="M0 0v768h128v-128h128v-128h-128v-512h-128zM256 640v128h256v-128h-256z" />
    <glyph glyph-name="s" unicode="s" 
d="M0 0v128h512v-128h-512zM512 128v256h128v-256h-128zM128 384v128h384v-128h-384zM0 512v128h128v-128h-128zM128 640v128h512v-128h-512z" />
    <glyph glyph-name="t" unicode="t" horiz-adv-x="640" 
d="M256 0v128h128v-128h-128zM128 128v512h-128v128h128v256h128v-256h128v-128h-128v-512h-128z" />
    <glyph glyph-name="u" unicode="u" 
d="M128 0v128h256v-128h-256zM0 128v640h128v-640h-128zM512 0v128h-128v128h128v512h128v-768h-128z" />
    <glyph glyph-name="v" unicode="v" 
d="M256 0v256h128v-256h-128zM128 256v256h128v-256h-128zM384 256v256h128v-256h-128zM0 512v256h128v-256h-128zM512 512v256h128v-256h-128z" />
    <glyph glyph-name="w" unicode="w" 
d="M128 0v256h128v-256h-128zM384 0v256h128v-256h-128zM256 256v384h128v-384h-128zM0 256v512h128v-512h-128zM512 256v512h128v-512h-128z" />
    <glyph glyph-name="x" unicode="x" 
d="M0 0v128h128v-128h-128zM512 0v128h128v-128h-128zM128 128v128h128v-128h-128zM384 128v128h128v-128h-128zM256 256v256h128v-256h-128zM128 512v128h128v-128h-128zM384 512v128h128v-128h-128zM0 640v128h128v-128h-128zM512 640v128h128v-128h-128z" />
    <glyph glyph-name="y" unicode="y" 
d="M0 -256v128h128v-128h-128zM128 -128v128h128v-128h-128zM256 0v256h128v-256h-128zM128 256v256h128v-256h-128zM384 256v256h128v-256h-128zM0 512v256h128v-256h-128zM512 512v256h128v-256h-128z" />
    <glyph glyph-name="z" unicode="z" 
d="M0 0v256h128v-128h512v-128h-640zM128 256v128h128v-128h-128zM256 384v128h128v-128h-128zM384 512v128h-384v128h640v-128h-128v-128h-128z" />
    <glyph glyph-name="braceleft" unicode="{" horiz-adv-x="640" 
d="M128 0v384h128v-256h128v-128h-256zM0 384v256h128v-256h-128zM128 640v384h256v-128h-128v-256h-128z" />
    <glyph glyph-name="bar" unicode="|" horiz-adv-x="384" 
d="M0 0v1024h128v-1024h-128z" />
    <glyph glyph-name="braceright" unicode="}" horiz-adv-x="640" 
d="M0 0v128h128v256h128v-384h-256zM256 384v256h128v-256h-128zM128 640v256h-128v128h256v-384h-128z" />
    <glyph glyph-name="asciitilde" unicode="~" 
d="M0 512v128h128v-128h-128zM256 512v128h-128v128h256v-128h128v-128h-256zM512 640v128h128v-128h-128z" />
    <glyph glyph-name="exclamdown" unicode="&#xa1;" horiz-adv-x="384" 
d="M0 0v640h128v-640h-128zM0 896v128h128v-128h-128z" />
    <glyph glyph-name="cent" unicode="&#xa2;" 
d="M512 256v128h128v-128h-128zM0 256v512h128v-512h-128zM512 640v128h128v-128h-128zM256 0v128h-128v128h128v512h-128v128h128v128h128v-128h128v-128h-128v-512h128v-128h-128v-128h-128z" />
    <glyph glyph-name="sterling" unicode="&#xa3;" 
d="M0 0v128h256v768h128v-256h128v-128h-128v-384h256v-128h-640zM384 896v128h256v-128h-256z" />
    <glyph glyph-name="currency" unicode="&#xa4;" 
d="M0 128v128h128v-128h-128zM512 128v128h128v-128h-128zM128 256v128h384v-128h-384zM0 384v256h128v-256h-128zM512 384v256h128v-256h-128zM128 640v128h384v-128h-384zM0 768v128h128v-128h-128zM512 768v128h128v-128h-128z" />
    <glyph glyph-name="yen" unicode="&#xa5;" 
d="M256 0v128h-256v128h256v128h-256v128h256v128h128v-128h256v-128h-256v-128h256v-128h-256v-128h-128zM128 640v128h128v-128h-128zM384 640v128h128v-128h-128zM0 768v256h128v-256h-128zM512 768v256h128v-256h-128z" />
    <glyph glyph-name="brokenbar" unicode="&#xa6;" horiz-adv-x="384" 
d="M0 0v384h128v-384h-128zM0 640v384h128v-384h-128z" />
    <glyph glyph-name="section" unicode="&#xa7;" 
d="M128 0v128h384v-128h-384zM0 128v128h128v-128h-128zM256 256v128h128v-128h-128zM512 128v256h-128v256h128v-128h128v-384h-128zM256 640v128h128v-128h-128zM128 384v128h-128v384h128v-256h128v-256h-128zM512 768v128h128v-128h-128zM128 896v128h384v-128h-384z
" />
    <glyph glyph-name="dieresis" unicode="&#xa8;" horiz-adv-x="640" 
d="M0 896v128h128v-128h-128zM256 896v128h128v-128h-128z" />
    <glyph glyph-name="copyright" unicode="&#xa9;" 
d="M0 128v128h256v-128h-256zM384 128v128h256v-128h-256zM256 256v128h128v-128h-128zM0 384v128h256v-128h-256zM384 384v128h256v-128h-256zM256 768v128h-128v-128h128zM512 768v128h-128v-128h128zM0 640v384h640v-384h-640z" />
    <glyph glyph-name="ordfeminine" unicode="&#xaa;" horiz-adv-x="768" 
d="M0 512v128h128v-128h-128zM128 384v128h256v128h-256v128h256v128h128v-512h-384zM128 896v128h256v-128h-256z" />
    <glyph glyph-name="guillemotleft" unicode="&#xab;" 
d="M128 256v128h128v-128h-128zM512 256v128h128v-128h-128zM0 384v128h128v-128h-128zM384 384v128h128v-128h-128zM128 512v128h128v-128h-128zM512 512v128h128v-128h-128z" />
    <glyph glyph-name="logicalnot" unicode="&#xac;" 
d="M512 256v256h-512v128h640v-384h-128z" />
    <glyph glyph-name="sfthyphen" unicode="&#xad;" horiz-adv-x="640" 
d="M0 512v128h384v-128h-384z" />
    <glyph glyph-name="macron" unicode="&#xaf;" 
d="M0 896v128h640v-128h-640z" />
    <glyph glyph-name="degree" unicode="&#xb0;" horiz-adv-x="768" 
d="M128 512v128h256v-128h-256zM0 640v256h128v-256h-128zM384 640v256h128v-256h-128zM128 896v128h256v-128h-256z" />
    <glyph glyph-name="plusminus" unicode="&#xb1;" 
d="M0 128v128h640v-128h-640zM256 384v128h-256v128h256v128h128v-128h256v-128h-256v-128h-128z" />
    <glyph glyph-name="twosuperior" unicode="&#xb2;" horiz-adv-x="768" 
d="M0 384v128h128v128h128v-128h256v-128h-512zM256 640v128h128v-128h-128zM0 768v128h128v-128h-128zM384 768v128h128v-128h-128zM128 896v128h256v-128h-256z" />
    <glyph glyph-name="threesuperior" unicode="&#xb3;" horiz-adv-x="768" 
d="M0 384v128h384v-128h-384zM384 512v128h128v-128h-128zM128 640v128h256v-128h-256zM384 768v128h128v-128h-128zM0 896v128h384v-128h-384z" />
    <glyph glyph-name="acute" unicode="&#xb4;" horiz-adv-x="640" 
d="M0 768v128h128v128h256v-128h-128v-128h-256z" />
    <glyph glyph-name="mu" unicode="&#xb5;" 
d="M0 -256v1024h128v-640h256v-128h-256v-256h-128zM512 0v128h-128v128h128v512h128v-768h-128z" />
    <glyph glyph-name="paragraph" unicode="&#xb6;" horiz-adv-x="1024" 
d="M384 0v384h-256v128h-128v384h128v128h640v-1024h-128v896h-128v-896h-128z" />
    <glyph glyph-name="periodcentered" unicode="&#xb7;" horiz-adv-x="512" 
d="M0 384v256h256v-256h-256z" />
    <glyph glyph-name="cedilla" unicode="&#xb8;" horiz-adv-x="512" 
d="M0 0v128h128v128h128v-256h-256z" />
    <glyph glyph-name="onesuperior" unicode="&#xb9;" horiz-adv-x="640" 
d="M0 384v128h128v384h-128v128h256v-512h128v-128h-384z" />
    <glyph glyph-name="ordmasculine" unicode="&#xba;" horiz-adv-x="768" 
d="M128 384v128h256v-128h-256zM0 512v384h128v-384h-128zM384 512v384h128v-384h-128zM128 896v128h256v-128h-256z" />
    <glyph glyph-name="guillemotright" unicode="&#xbb;" 
d="M0 256v128h128v-128h-128zM384 256v128h128v-128h-128zM128 384v128h128v-128h-128zM512 384v128h128v-128h-128zM0 512v128h128v-128h-128zM384 512v128h128v-128h-128z" />
    <glyph glyph-name="onequarter" unicode="&#xbc;" horiz-adv-x="1152" 
d="M768 0v256h-256v384h128v-256h128v256h128v-640h-128zM0 384v128h128v384h-128v128h256v-512h128v-128h-384z" />
    <glyph glyph-name="onehalf" unicode="&#xbd;" horiz-adv-x="1280" 
d="M512 0v128h128v128h128v-128h256v-128h-512zM768 256v128h128v-128h-128zM512 384v128h128v-128h-128zM896 384v128h128v-128h-128zM640 512v128h256v-128h-256zM0 384v128h128v384h-128v128h256v-512h128v-128h-384z" />
    <glyph glyph-name="threequarters" unicode="&#xbe;" horiz-adv-x="1280" 
d="M0 384v128h384v-128h-384zM384 512v128h128v-128h-128zM896 0v256h-256v384h128v-256h128v256h128v-640h-128zM128 640v128h256v-128h-256zM384 768v128h128v-128h-128zM0 896v128h384v-128h-384z" />
    <glyph glyph-name="questiondown" unicode="&#xbf;" 
d="M128 0v128h384v-128h-384zM512 128v128h128v-128h-128zM0 128v256h128v-256h-128zM128 384v128h128v-128h-128zM256 512v128h128v-128h-128zM256 896v128h128v-128h-128z" />
    <glyph glyph-name="Agrave" unicode="&#xc0;" 
d="M0 0v896h128v-256h384v256h128v-896h-128v512h-384v-512h-128zM128 896v128h384v-128h-384zM128 1152v128h-128v128h256v-128h128v-128h-256z" />
    <glyph glyph-name="Aacute" unicode="&#xc1;" 
d="M0 0v896h128v-256h384v256h128v-896h-128v512h-384v-512h-128zM128 896v128h384v-128h-384zM256 1152v128h128v128h256v-128h-128v-128h-256z" />
    <glyph glyph-name="Acircumflex" unicode="&#xc2;" 
d="M0 0v896h128v-256h384v256h128v-896h-128v512h-384v-512h-128zM128 896v128h384v-128h-384zM128 1152v128h128v-128h-128zM384 1152v128h128v-128h-128zM256 1280v128h128v-128h-128z" />
    <glyph glyph-name="Atilde" unicode="&#xc3;" 
d="M0 0v896h128v-256h384v256h128v-896h-128v512h-384v-512h-128zM128 896v128h384v-128h-384zM0 1152v128h128v-128h-128zM256 1152v128h-128v128h256v-128h128v-128h-256zM512 1280v128h128v-128h-128z" />
    <glyph glyph-name="Adieresis" unicode="&#xc4;" 
d="M0 0v896h128v-256h384v256h128v-896h-128v512h-384v-512h-128zM128 896v128h384v-128h-384zM128 1152v128h128v-128h-128zM384 1152v128h128v-128h-128z" />
    <glyph glyph-name="Aring" unicode="&#xc5;" 
d="M0 0v896h128v-256h384v256h128v-896h-128v512h-384v-512h-128zM128 896v128h128v128h128v-128h128v-128h-384zM128 1152v128h128v-128h-128zM384 1152v128h128v-128h-128zM256 1280v128h128v-128h-128z" />
    <glyph glyph-name="AE" unicode="&#xc6;" horiz-adv-x="1024" 
d="M0 0v896h128v-256h256v256h-256v128h640v-128h-256v-256h256v-128h-256v-384h256v-128h-384v512h-256v-512h-128z" />
    <glyph glyph-name="Ccedilla" unicode="&#xc7;" 
d="M128 -256v128h128v128h-128v128h384v-128h-128v-256h-256zM512 128v128h128v-128h-128zM0 128v768h128v-768h-128zM512 768v128h128v-128h-128zM128 896v128h384v-128h-384z" />
    <glyph glyph-name="Egrave" unicode="&#xc8;" 
d="M0 0v1024h640v-128h-512v-256h384v-128h-384v-384h512v-128h-640zM128 1152v128h-128v128h256v-128h128v-128h-256z" />
    <glyph glyph-name="Eacute" unicode="&#xc9;" 
d="M0 0v1024h640v-128h-512v-256h384v-128h-384v-384h512v-128h-640zM256 1152v128h128v128h256v-128h-128v-128h-256z" />
    <glyph glyph-name="Ecircumflex" unicode="&#xca;" 
d="M0 0v1024h640v-128h-512v-256h384v-128h-384v-384h512v-128h-640zM128 1152v128h128v-128h-128zM384 1152v128h128v-128h-128zM256 1280v128h128v-128h-128z" />
    <glyph glyph-name="Edieresis" unicode="&#xcb;" 
d="M0 0v1024h640v-128h-512v-256h384v-128h-384v-384h512v-128h-640zM128 1152v128h128v-128h-128zM384 1152v128h128v-128h-128z" />
    <glyph glyph-name="Igrave" unicode="&#xcc;" horiz-adv-x="640" 
d="M0 0v128h128v768h-128v128h384v-128h-128v-768h128v-128h-384zM128 1152v128h-128v128h256v-128h128v-128h-256z" />
    <glyph glyph-name="Iacute" unicode="&#xcd;" horiz-adv-x="640" 
d="M0 0v128h128v768h-128v128h384v-128h-128v-768h128v-128h-384zM0 1152v128h128v128h256v-128h-128v-128h-256z" />
    <glyph glyph-name="Icircumflex" unicode="&#xce;" horiz-adv-x="640" 
d="M0 0v128h128v768h-128v128h384v-128h-128v-768h128v-128h-384zM0 1152v128h128v-128h-128zM256 1152v128h128v-128h-128zM128 1280v128h128v-128h-128z" />
    <glyph glyph-name="Idieresis" unicode="&#xcf;" horiz-adv-x="640" 
d="M0 0v128h128v768h-128v128h384v-128h-128v-768h128v-128h-384zM0 1152v128h128v-128h-128zM256 1152v128h128v-128h-128z" />
    <glyph glyph-name="Eth" unicode="&#xd0;" horiz-adv-x="1024" 
d="M512 128v128h128v-128h-128zM640 256v512h128v-512h-128zM512 768v128h128v-128h-128zM128 0v384h-128v128h128v512h384v-128h-256v-384h128v-128h-128v-256h256v-128h-384z" />
    <glyph glyph-name="Ntilde" unicode="&#xd1;" 
d="M256 512v128h128v-128h-128zM0 0v1024h128v-256h128v-128h-128v-640h-128zM512 0v384h-128v128h128v512h128v-1024h-128zM0 1152v128h128v-128h-128zM256 1152v128h-128v128h256v-128h128v-128h-256zM512 1280v128h128v-128h-128z" />
    <glyph glyph-name="Ograve" unicode="&#xd2;" 
d="M128 0v128h384v-128h-384zM0 128v768h128v-768h-128zM512 128v768h128v-768h-128zM128 896v128h384v-128h-384zM128 1152v128h-128v128h256v-128h128v-128h-256z" />
    <glyph glyph-name="Oacute" unicode="&#xd3;" 
d="M128 0v128h384v-128h-384zM0 128v768h128v-768h-128zM512 128v768h128v-768h-128zM128 896v128h384v-128h-384zM256 1152v128h128v128h256v-128h-128v-128h-256z" />
    <glyph glyph-name="Ocircumflex" unicode="&#xd4;" 
d="M128 0v128h384v-128h-384zM0 128v768h128v-768h-128zM512 128v768h128v-768h-128zM128 896v128h384v-128h-384zM128 1152v128h128v-128h-128zM384 1152v128h128v-128h-128zM256 1280v128h128v-128h-128z" />
    <glyph glyph-name="Otilde" unicode="&#xd5;" 
d="M128 0v128h384v-128h-384zM0 128v768h128v-768h-128zM512 128v768h128v-768h-128zM128 896v128h384v-128h-384zM0 1152v128h128v-128h-128zM256 1152v128h-128v128h256v-128h128v-128h-256zM512 1280v128h128v-128h-128z" />
    <glyph glyph-name="Odieresis" unicode="&#xd6;" 
d="M128 0v128h384v-128h-384zM0 128v768h128v-768h-128zM512 128v768h128v-768h-128zM128 896v128h384v-128h-384zM128 1152v128h128v-128h-128zM384 1152v128h128v-128h-128z" />
    <glyph glyph-name="multiply" unicode="&#xd7;" 
d="M0 128v128h128v-128h-128zM512 128v128h128v-128h-128zM128 256v128h128v-128h-128zM384 256v128h128v-128h-128zM256 384v128h128v-128h-128zM128 512v128h128v-128h-128zM384 512v128h128v-128h-128zM0 640v128h128v-128h-128zM512 640v128h128v-128h-128z" />
    <glyph glyph-name="Oslash" unicode="&#xd8;" 
d="M128 0v128h384v-128h-384zM256 512v128h128v-128h-128zM0 128v768h128v-384h128v-128h-128v-256h-128zM512 128v512h-128v128h128v128h128v-768h-128zM128 896v128h384v-128h-384z" />
    <glyph glyph-name="Ugrave" unicode="&#xd9;" 
d="M128 0v128h384v-128h-384zM0 128v896h128v-896h-128zM512 128v896h128v-896h-128zM128 1152v128h-128v128h256v-128h128v-128h-256z" />
    <glyph glyph-name="Uacute" unicode="&#xda;" 
d="M128 0v128h384v-128h-384zM0 128v896h128v-896h-128zM512 128v896h128v-896h-128zM256 1152v128h128v128h256v-128h-128v-128h-256z" />
    <glyph glyph-name="Ucircumflex" unicode="&#xdb;" 
d="M128 0v128h384v-128h-384zM0 128v896h128v-896h-128zM512 128v896h128v-896h-128zM128 1152v128h128v-128h-128zM384 1152v128h128v-128h-128zM256 1280v128h128v-128h-128z" />
    <glyph glyph-name="Udieresis" unicode="&#xdc;" 
d="M128 0v128h384v-128h-384zM0 128v896h128v-896h-128zM512 128v896h128v-896h-128z" />
    <glyph glyph-name="Yacute" unicode="&#xdd;" 
d="M256 0v640h128v-640h-128zM128 640v128h128v-128h-128zM384 640v128h128v-128h-128zM0 768v256h128v-256h-128zM512 768v256h128v-256h-128zM256 1152v128h128v128h256v-128h-128v-128h-256z" />
    <glyph glyph-name="Thorn" unicode="&#xde;" horiz-adv-x="768" 
d="M384 384v256h128v-256h-128zM0 0v1024h128v-256h256v-128h-256v-256h256v-128h-256v-256h-128z" />
    <glyph glyph-name="germandbls" unicode="&#xdf;" 
d="M384 0v128h128v-128h-128zM256 128v128h128v-128h-128zM512 128v384h128v-384h-128zM384 512v128h128v-128h-128zM256 640v128h128v-128h-128zM0 0v896h128v-896h-128zM384 768v128h256v-128h-256zM128 896v128h256v-128h-256z" />
    <glyph glyph-name="agrave" unicode="&#xe0;" 
d="M128 0v128h256v-128h-256zM0 128v256h128v-256h-128zM512 0v128h-128v128h128v128h-384v128h384v128h128v-640h-128zM128 640v128h384v-128h-384zM128 896v128h-128v128h256v-128h128v-128h-256z" />
    <glyph glyph-name="aacute" unicode="&#xe1;" 
d="M128 0v128h256v-128h-256zM0 128v256h128v-256h-128zM512 0v128h-128v128h128v128h-384v128h384v128h128v-640h-128zM128 640v128h384v-128h-384zM256 896v128h128v128h256v-128h-128v-128h-256z" />
    <glyph glyph-name="acircumflex" unicode="&#xe2;" 
d="M128 0v128h256v-128h-256zM0 128v256h128v-256h-128zM512 0v128h-128v128h128v128h-384v128h384v128h128v-640h-128zM128 640v128h384v-128h-384zM128 896v128h128v-128h-128zM384 896v128h128v-128h-128zM256 1024v128h128v-128h-128z" />
    <glyph glyph-name="atilde" unicode="&#xe3;" 
d="M128 0v128h256v-128h-256zM0 128v256h128v-256h-128zM512 0v128h-128v128h128v128h-384v128h384v128h128v-640h-128zM128 640v128h384v-128h-384zM0 896v128h128v-128h-128zM256 896v128h-128v128h256v-128h128v-128h-256zM512 1024v128h128v-128h-128z" />
    <glyph glyph-name="adieresis" unicode="&#xe4;" 
d="M128 0v128h256v-128h-256zM0 128v256h128v-256h-128zM512 0v128h-128v128h128v128h-384v128h384v128h128v-640h-128zM128 640v128h384v-128h-384zM128 896v128h128v-128h-128zM384 896v128h128v-128h-128z" />
    <glyph glyph-name="aring" unicode="&#xe5;" 
d="M128 0v128h256v-128h-256zM0 128v256h128v-256h-128zM512 0v128h-128v128h128v128h-384v128h384v128h128v-640h-128zM128 640v128h128v128h128v-128h128v-128h-384zM128 896v128h128v-128h-128zM384 896v128h128v-128h-128zM256 1024v128h128v-128h-128z" />
    <glyph glyph-name="ae" unicode="&#xe6;" horiz-adv-x="1152" 
d="M128 0v128h256v-128h-256zM512 0v128h384v-128h-384zM0 128v256h128v-256h-128zM384 128v256h-256v128h256v128h128v-128h256v128h128v-256h-384v-256h-128zM128 640v128h256v-128h-256zM512 640v128h256v-128h-256z" />
    <glyph glyph-name="ccedilla" unicode="&#xe7;" 
d="M128 -256v128h128v128h-128v128h384v-128h-128v-256h-256zM512 128v128h128v-128h-128zM0 128v512h128v-512h-128zM512 512v128h128v-128h-128zM128 640v128h384v-128h-384z" />
    <glyph glyph-name="egrave" unicode="&#xe8;" 
d="M128 0v128h512v-128h-512zM0 128v512h128v-128h384v128h128v-256h-512v-256h-128zM128 640v128h384v-128h-384zM128 896v128h-128v128h256v-128h128v-128h-256z" />
    <glyph glyph-name="eacute" unicode="&#xe9;" 
d="M128 0v128h512v-128h-512zM0 128v512h128v-128h384v128h128v-256h-512v-256h-128zM128 640v128h384v-128h-384zM256 896v128h128v128h256v-128h-128v-128h-256z" />
    <glyph glyph-name="ecircumflex" unicode="&#xea;" 
d="M128 0v128h512v-128h-512zM0 128v512h128v-128h384v128h128v-256h-512v-256h-128zM128 640v128h384v-128h-384zM128 896v128h128v-128h-128zM384 896v128h128v-128h-128zM256 1024v128h128v-128h-128z" />
    <glyph glyph-name="edieresis" unicode="&#xeb;" 
d="M128 0v128h512v-128h-512zM0 128v512h128v-128h384v128h128v-256h-512v-256h-128zM128 640v128h384v-128h-384zM128 896v128h128v-128h-128zM384 896v128h128v-128h-128z" />
    <glyph glyph-name="igrave" unicode="&#xec;" horiz-adv-x="640" 
d="M0 0v128h128v512h-128v128h256v-640h128v-128h-384zM128 896v128h-128v128h256v-128h128v-128h-256z" />
    <glyph glyph-name="iacute" unicode="&#xed;" horiz-adv-x="640" 
d="M0 0v128h128v512h-128v128h256v-640h128v-128h-384zM0 896v128h128v128h256v-128h-128v-128h-256z" />
    <glyph glyph-name="icircumflex" unicode="&#xee;" horiz-adv-x="640" 
d="M0 0v128h128v512h-128v128h256v-640h128v-128h-384zM0 896v128h128v-128h-128zM256 896v128h128v-128h-128zM128 1024v128h128v-128h-128z" />
    <glyph glyph-name="idieresis" unicode="&#xef;" horiz-adv-x="640" 
d="M0 0v128h128v512h-128v128h256v-640h128v-128h-384zM0 896v128h128v-128h-128zM256 896v128h128v-128h-128z" />
    <glyph glyph-name="eth" unicode="&#xf0;" 
d="M512 128v512h128v-512h-128zM128 0v384h-128v128h128v256h384v-128h-256v-128h128v-128h-128v-256h256v-128h-384z" />
    <glyph glyph-name="ntilde" unicode="&#xf1;" 
d="M512 0v640h128v-640h-128zM0 0v768h128v-128h128v-128h-128v-512h-128zM256 640v128h256v-128h-256zM0 896v128h128v-128h-128zM256 896v128h-128v128h256v-128h128v-128h-256zM512 1024v128h128v-128h-128z" />
    <glyph glyph-name="ograve" unicode="&#xf2;" 
d="M128 0v128h384v-128h-384zM0 128v512h128v-512h-128zM512 128v512h128v-512h-128zM128 640v128h384v-128h-384zM128 896v128h-128v128h256v-128h128v-128h-256z" />
    <glyph glyph-name="oacute" unicode="&#xf3;" 
d="M128 0v128h384v-128h-384zM0 128v512h128v-512h-128zM512 128v512h128v-512h-128zM128 640v128h384v-128h-384zM256 896v128h128v128h256v-128h-128v-128h-256z" />
    <glyph glyph-name="ocircumflex" unicode="&#xf4;" 
d="M128 0v128h384v-128h-384zM0 128v512h128v-512h-128zM512 128v512h128v-512h-128zM128 640v128h384v-128h-384zM128 896v128h128v-128h-128zM384 896v128h128v-128h-128zM256 1024v128h128v-128h-128z" />
    <glyph glyph-name="otilde" unicode="&#xf5;" 
d="M128 0v128h384v-128h-384zM0 128v512h128v-512h-128zM512 128v512h128v-512h-128zM128 640v128h384v-128h-384zM0 896v128h128v-128h-128zM256 896v128h-128v128h256v-128h128v-128h-256zM512 1024v128h128v-128h-128z" />
    <glyph glyph-name="odieresis" unicode="&#xf6;" 
d="M128 0v128h384v-128h-384zM0 128v512h128v-512h-128zM512 128v512h128v-512h-128zM128 640v128h384v-128h-384zM128 896v128h128v-128h-128zM384 896v128h128v-128h-128z" />
    <glyph glyph-name="divide" unicode="&#xf7;" 
d="M256 128v128h128v-128h-128zM0 384v128h640v-128h-640zM256 640v128h128v-128h-128z" />
    <glyph glyph-name="oslash" unicode="&#xf8;" 
d="M128 0v128h384v-128h-384zM256 384v128h128v-128h-128zM0 128v512h128v-256h128v-128h-128v-128h-128zM512 128v384h-128v128h-256v128h384v-128h128v-512h-128z" />
    <glyph glyph-name="ugrave" unicode="&#xf9;" 
d="M128 0v128h256v-128h-256zM0 128v640h128v-640h-128zM512 0v128h-128v128h128v512h128v-768h-128zM128 896v128h-128v128h256v-128h128v-128h-256z" />
    <glyph glyph-name="uacute" unicode="&#xfa;" 
d="M128 0v128h256v-128h-256zM0 128v640h128v-640h-128zM512 0v128h-128v128h128v512h128v-768h-128zM256 896v128h128v128h256v-128h-128v-128h-256z" />
    <glyph glyph-name="ucircumflex" unicode="&#xfb;" 
d="M128 0v128h256v-128h-256zM0 128v640h128v-640h-128zM512 0v128h-128v128h128v512h128v-768h-128zM128 896v128h128v-128h-128zM384 896v128h128v-128h-128zM256 1024v128h128v-128h-128z" />
    <glyph glyph-name="udieresis" unicode="&#xfc;" 
d="M128 0v128h256v-128h-256zM0 128v640h128v-640h-128zM512 0v128h-128v128h128v512h128v-768h-128zM128 896v128h128v-128h-128zM384 896v128h128v-128h-128z" />
    <glyph glyph-name="yacute" unicode="&#xfd;" 
d="M128 -256v128h384v-128h-384zM128 128v128h256v-128h-256zM0 256v512h128v-512h-128zM512 -128v384h-128v128h128v384h128v-896h-128zM256 896v128h128v128h256v-128h-128v-128h-256z" />
    <glyph glyph-name="thorn" unicode="&#xfe;" horiz-adv-x="768" 
d="M384 256v256h128v-256h-128zM0 0v768h128v-128h256v-128h-256v-256h256v-128h-256v-128h-128z" />
    <glyph glyph-name="ydieresis" unicode="&#xff;" 
d="M128 -256v128h384v-128h-384zM128 128v128h256v-128h-256zM0 256v512h128v-512h-128zM512 -128v384h-128v128h128v384h128v-896h-128zM128 896v128h128v-128h-128zM384 896v128h128v-128h-128z" />
    <glyph glyph-name="Uring" unicode="&#x16e;" 
d="M128 0v128h384v-128h-384zM0 128v896h128v-896h-128zM512 128v896h128v-896h-128z" />
    <glyph glyph-name="uring" unicode="&#x16f;" 
d="M128 0v128h256v-128h-256zM0 128v640h128v-640h-128zM512 0v128h-128v128h128v512h128v-768h-128z" />
    <glyph glyph-name="Ydieresis" unicode="&#x178;" 
d="M256 0v640h128v-640h-128zM128 640v128h128v-128h-128zM384 640v128h128v-128h-128zM0 768v256h128v-256h-128zM512 768v256h128v-256h-128zM128 1152v128h128v-128h-128zM384 1152v128h128v-128h-128z" />
    <glyph glyph-name="numeralsigngreek" unicode="&#x374;" horiz-adv-x="512" 
d="M0 512v256h128v256h128v-384h-128v-128h-128z" />
    <glyph glyph-name="numeralsignlowergreek" unicode="&#x375;" horiz-adv-x="512" 
d="M0 0v256h128v256h128v-384h-128v-128h-128z" />
    <glyph glyph-name="ypogegrammeni" unicode="&#x37a;" horiz-adv-x="512" 
d="M0 0v256h128v-128h128v-128h-256z" />
    <glyph glyph-name="questiongreek" unicode="&#x37e;" horiz-adv-x="512" 
d="M0 -128v128h128v-128h-128zM128 0v128h-128v128h256v-256h-128zM0 512v256h256v-256h-256z" />
    <glyph glyph-name="tonos" unicode="&#x384;" horiz-adv-x="384" 
d="M0 768v256h128v-256h-128z" />
    <glyph glyph-name="dialytikatonos" unicode="&#x385;" 
d="M0 768v128h128v-128h-128zM512 768v128h128v-128h-128zM256 768v256h128v-256h-128z" />
    <glyph glyph-name="Alphatonos" unicode="&#x386;" horiz-adv-x="1024" 
d="M128 0v768h-128v256h128v-128h128v-256h384v256h128v-896h-128v512h-384v-512h-128zM256 896v128h384v-128h-384z" />
    <glyph glyph-name="anoteleia" unicode="&#x387;" horiz-adv-x="384" 
d="M0 768v128h128v-128h-128z" />
    <glyph glyph-name="Epsilontonos" unicode="&#x388;" horiz-adv-x="1024" 
d="M128 0v768h-128v256h768v-128h-512v-256h384v-128h-384v-384h512v-128h-640z" />
    <glyph glyph-name="Etatonos" unicode="&#x389;" horiz-adv-x="1024" 
d="M128 0v768h-128v256h256v-384h384v384h128v-1024h-128v512h-384v-512h-128z" />
    <glyph glyph-name="Iotatonos" unicode="&#x38a;" horiz-adv-x="768" 
d="M128 0v128h128v768h-128v-128h-128v256h512v-128h-128v-768h128v-128h-384z" />
    <glyph glyph-name="Omicrontonos" unicode="&#x38c;" horiz-adv-x="1024" 
d="M256 0v128h384v-128h-384zM640 128v768h128v-768h-128zM128 128v640h-128v256h128v-128h128v-768h-128zM256 896v128h384v-128h-384z" />
    <glyph glyph-name="Upsilontonos" unicode="&#x38e;" horiz-adv-x="1024" 
d="M384 0v640h128v-640h-128zM256 640v128h128v-128h-128zM512 640v128h128v-128h-128zM0 768v256h256v-256h-256zM640 768v256h128v-256h-128z" />
    <glyph glyph-name="Omegatonos" unicode="&#x38f;" horiz-adv-x="1024" 
d="M128 0v128h128v128h128v-256h-256zM512 0v256h128v-128h128v-128h-256zM640 256v640h128v-640h-128zM128 256v512h-128v256h128v-128h128v-640h-128zM256 896v128h384v-128h-384z" />
    <glyph glyph-name="iotadieresistonos" unicode="&#x390;" horiz-adv-x="640" 
d="M256 0v128h128v-128h-128zM128 128v640h128v-640h-128zM0 768v128h128v-128h-128zM256 768v128h128v-128h-128zM128 896v256h128v-256h-128z" />
    <glyph glyph-name="Alpha" unicode="&#x391;" 
d="M0 0v896h128v-256h384v256h128v-896h-128v512h-384v-512h-128zM128 896v128h384v-128h-384z" />
    <glyph glyph-name="Beta" unicode="&#x392;" 
d="M512 128v384h128v-384h-128zM512 640v256h128v-256h-128zM0 0v1024h512v-128h-384v-256h384v-128h-384v-384h384v-128h-512z" />
    <glyph glyph-name="Gamma" unicode="&#x393;" 
d="M0 0v1024h640v-128h-512v-896h-128z" />
    <glyph glyph-name="Deltagreek" unicode="&#x394;" 
d="M0 0v384h128v-384h-128zM512 0v384h128v-384h-128zM128 384v384h128v-384h-128zM384 384v384h128v-384h-128zM256 768v256h128v-256h-128z" />
    <glyph glyph-name="Epsilon" unicode="&#x395;" 
d="M0 0v1024h640v-128h-512v-256h384v-128h-384v-384h512v-128h-640z" />
    <glyph glyph-name="Zeta" unicode="&#x396;" 
d="M0 0v384h128v-256h512v-128h-640zM128 384v128h128v-128h-128zM256 512v128h128v-128h-128zM384 640v128h128v-128h-128zM512 768v128h-512v128h640v-256h-128z" />
    <glyph glyph-name="Eta" unicode="&#x397;" 
d="M0 0v1024h128v-384h384v384h128v-1024h-128v512h-384v-512h-128z" />
    <glyph glyph-name="Theta" unicode="&#x398;" 
d="M128 0v128h384v-128h-384zM256 512v128h128v-128h-128zM0 128v768h128v-768h-128zM512 128v768h128v-768h-128zM128 896v128h384v-128h-384z" />
    <glyph glyph-name="Iota" unicode="&#x399;" horiz-adv-x="640" 
d="M0 0v128h128v768h-128v128h384v-128h-128v-768h128v-128h-384z" />
    <glyph glyph-name="Kappa" unicode="&#x39a;" 
d="M512 0v128h128v-128h-128zM384 128v128h128v-128h-128zM256 256v128h128v-128h-128zM256 640v128h128v-128h-128zM384 768v128h128v-128h-128zM0 0v1024h128v-384h128v-256h-128v-384h-128zM512 896v128h128v-128h-128z" />
    <glyph glyph-name="Lambda" unicode="&#x39b;" 
d="M0 0v384h128v-384h-128zM512 0v384h128v-384h-128zM128 384v384h128v-384h-128zM384 384v384h128v-384h-128zM256 768v256h128v-256h-128z" />
    <glyph glyph-name="Mu" unicode="&#x39c;" 
d="M256 384v256h128v-256h-128zM0 0v1024h128v-256h128v-128h-128v-640h-128zM512 0v640h-128v128h128v256h128v-1024h-128z" />
    <glyph glyph-name="Nu" unicode="&#x39d;" 
d="M256 512v128h128v-128h-128zM0 0v1024h128v-256h128v-128h-128v-640h-128zM512 0v384h-128v128h128v512h128v-1024h-128z" />
    <glyph glyph-name="Xi" unicode="&#x39e;" 
d="M0 0v128h640v-128h-640zM0 512v128h640v-128h-640zM0 896v128h640v-128h-640z" />
    <glyph glyph-name="Omicron" unicode="&#x39f;" 
d="M128 0v128h384v-128h-384zM0 128v768h128v-768h-128zM512 128v768h128v-768h-128zM128 896v128h384v-128h-384z" />
    <glyph glyph-name="Pi" unicode="&#x3a0;" horiz-adv-x="1024" 
d="M128 0v896h-128v128h768v-128h-128v-896h-128v896h-256v-896h-128z" />
    <glyph glyph-name="Rho" unicode="&#x3a1;" 
d="M512 512v384h128v-384h-128zM0 0v1024h512v-128h-384v-384h384v-128h-384v-384h-128z" />
    <glyph glyph-name="Sigma" unicode="&#x3a3;" 
d="M0 0v256h128v-128h512v-128h-640zM128 256v128h128v-128h-128zM256 384v256h128v-256h-128zM128 640v128h128v-128h-128zM0 768v256h640v-128h-512v-128h-128z" />
    <glyph glyph-name="Tau" unicode="&#x3a4;" 
d="M256 0v896h-256v128h640v-128h-256v-896h-128z" />
    <glyph glyph-name="Upsilon" unicode="&#x3a5;" 
d="M256 0v640h128v-640h-128zM128 640v128h128v-128h-128zM384 640v128h128v-128h-128zM0 768v256h128v-256h-128zM512 768v256h128v-256h-128z" />
    <glyph glyph-name="Phi" unicode="&#x3a6;" 
d="M0 256v512h128v-512h-128zM512 256v512h128v-512h-128zM256 0v128h-128v128h128v512h-128v128h128v128h128v-128h128v-128h-128v-512h128v-128h-128v-128h-128z" />
    <glyph glyph-name="Chi" unicode="&#x3a7;" 
d="M0 0v256h128v-256h-128zM512 0v256h128v-256h-128zM128 256v128h128v-128h-128zM384 256v128h128v-128h-128zM256 384v256h128v-256h-128zM128 640v128h128v-128h-128zM384 640v128h128v-128h-128zM0 768v256h128v-256h-128zM512 768v256h128v-256h-128z" />
    <glyph glyph-name="Psi" unicode="&#x3a8;" 
d="M0 640v384h128v-384h-128zM256 0v512h-128v128h128v384h128v-384h128v-128h-128v-512h-128zM512 640v384h128v-384h-128z" />
    <glyph glyph-name="Omega" unicode="&#x3a9;" 
d="M0 0v128h128v128h128v-256h-256zM384 0v256h128v-128h128v-128h-256zM0 256v640h128v-640h-128zM512 256v640h128v-640h-128zM128 896v128h384v-128h-384z" />
    <glyph glyph-name="Iotadieresis" unicode="&#x3aa;" horiz-adv-x="640" 
d="M0 0v128h128v768h-128v128h384v-128h-128v-768h128v-128h-384zM0 1152v128h128v-128h-128zM256 1152v128h128v-128h-128z" />
    <glyph glyph-name="Upsilondieresis" unicode="&#x3ab;" 
d="M256 0v640h128v-640h-128zM128 640v128h128v-128h-128zM384 640v128h128v-128h-128zM0 768v256h128v-256h-128zM512 768v256h128v-256h-128zM128 1152v128h128v-128h-128zM384 1152v128h128v-128h-128z" />
    <glyph glyph-name="alphatonos" unicode="&#x3ac;" 
d="M128 0v128h256v-128h-256zM512 0v128h128v-128h-128zM0 128v512h128v-512h-128zM384 128v512h128v-512h-128zM128 640v128h256v-128h-256zM512 640v128h128v-128h-128zM256 896v256h128v-256h-128z" />
    <glyph glyph-name="epsilontonos" unicode="&#x3ad;" 
d="M128 0v128h512v-128h-512zM0 128v512h128v-128h384v-128h-384v-256h-128zM128 640v128h512v-128h-512zM256 896v256h128v-256h-128z" />
    <glyph glyph-name="etatonos" unicode="&#x3ae;" 
d="M512 -256v896h128v-896h-128zM0 0v768h128v-128h128v-128h-128v-512h-128zM256 640v128h256v-128h-256zM256 896v256h128v-256h-128z" />
    <glyph glyph-name="iotatonos" unicode="&#x3af;" horiz-adv-x="512" 
d="M128 0v128h128v-128h-128zM0 128v640h128v-640h-128zM0 896v256h128v-256h-128z" />
    <glyph glyph-name="upsilondieresistonos" unicode="&#x3b0;" 
d="M128 0v128h384v-128h-384zM0 128v640h128v-640h-128zM512 128v640h128v-640h-128zM0 896v128h128v-128h-128zM512 896v128h128v-128h-128zM256 896v256h128v-256h-128z" />
    <glyph glyph-name="alpha" unicode="&#x3b1;" 
d="M128 0v128h256v-128h-256zM512 0v128h128v-128h-128zM0 128v512h128v-512h-128zM384 128v512h128v-512h-128zM128 640v128h256v-128h-256zM512 640v128h128v-128h-128z" />
    <glyph glyph-name="beta" unicode="&#x3b2;" 
d="M512 256v256h128v-256h-128zM0 -128v1024h128v-256h384v-128h-384v-256h384v-128h-384v-256h-128zM512 640v256h128v-256h-128zM128 896v128h384v-128h-384z" />
    <glyph glyph-name="gamma" unicode="&#x3b3;" 
d="M256 -256v512h128v-512h-128zM128 256v256h128v-256h-128zM384 256v256h128v-256h-128zM0 512v256h128v-256h-128zM512 512v256h128v-256h-128z" />
    <glyph glyph-name="delta" unicode="&#x3b4;" 
d="M128 0v128h384v-128h-384zM0 128v384h128v-384h-128zM512 128v384h128v-384h-128zM128 512v256h128v-128h256v-128h-384zM0 768v256h512v-128h-384v-128h-128z" />
    <glyph glyph-name="epsilon" unicode="&#x3b5;" 
d="M128 0v128h512v-128h-512zM0 128v512h128v-128h384v-128h-384v-256h-128zM128 640v128h512v-128h-512z" />
    <glyph glyph-name="zeta" unicode="&#x3b6;" 
d="M256 -256v128h256v-128h-256zM512 -128v128h-384v128h512v-256h-128zM0 128v256h128v-256h-128zM128 384v128h128v-128h-128zM256 512v128h128v-128h-128zM384 640v128h-384v128h512v128h128v-256h-128v-128h-128z" />
    <glyph glyph-name="eta" unicode="&#x3b7;" 
d="M512 -256v896h128v-896h-128zM0 0v768h128v-128h128v-128h-128v-512h-128zM256 640v128h256v-128h-256z" />
    <glyph glyph-name="theta" unicode="&#x3b8;" 
d="M128 0v128h384v-128h-384zM256 256v256h128v-256h-128zM0 128v512h128v-512h-128zM512 128v512h128v-512h-128zM128 640v128h384v-128h-384z" />
    <glyph glyph-name="iota" unicode="&#x3b9;" horiz-adv-x="512" 
d="M128 0v128h128v-128h-128zM0 128v640h128v-640h-128z" />
    <glyph glyph-name="kappa" unicode="&#x3ba;" 
d="M512 0v128h128v-128h-128zM384 128v128h128v-128h-128zM256 256v128h128v-128h-128zM256 512v128h128v-128h-128zM0 0v768h128v-256h128v-128h-128v-384h-128zM384 640v128h256v-128h-256z" />
    <glyph glyph-name="lambda" unicode="&#x3bb;" 
d="M0 0v256h128v-256h-128zM512 0v256h128v-256h-128zM128 256v256h128v-256h-128zM384 256v256h128v-256h-128zM256 512v256h128v-256h-128zM128 768v128h128v-128h-128zM0 896v128h128v-128h-128z" />
    <glyph glyph-name="mugreek" unicode="&#x3bc;" 
d="M0 -256v1024h128v-640h256v-128h-256v-256h-128zM512 0v128h-128v128h128v512h128v-768h-128z" />
    <glyph glyph-name="nu" unicode="&#x3bd;" 
d="M256 0v256h128v-256h-128zM128 256v256h128v-256h-128zM384 256v256h128v-256h-128zM0 512v256h128v-256h-128zM512 512v256h128v-256h-128z" />
    <glyph glyph-name="xi" unicode="&#x3be;" 
d="M256 -256v128h256v-128h-256zM512 -128v128h-384v128h512v-256h-128zM0 128v256h128v-256h-128zM128 384v128h384v-128h-384zM0 512v128h128v-128h-128zM128 640v128h-128v128h512v128h128v-256h-384v-128h-128z" />
    <glyph glyph-name="omicron" unicode="&#x3bf;" 
d="M128 0v128h384v-128h-384zM0 128v512h128v-512h-128zM512 128v512h128v-512h-128zM128 640v128h384v-128h-384z" />
    <glyph glyph-name="pi" unicode="&#x3c0;" horiz-adv-x="1024" 
d="M128 0v640h-128v128h768v-128h-128v-640h-128v640h-256v-640h-128z" />
    <glyph glyph-name="rho" unicode="&#x3c1;" 
d="M0 -256v896h128v-384h384v-128h-384v-384h-128zM512 256v384h128v-384h-128zM128 640v128h384v-128h-384z" />
    <glyph glyph-name="sigma1" unicode="&#x3c2;" 
d="M256 -256v128h256v-128h-256zM512 -128v128h128v-128h-128zM128 0v128h384v-128h-384zM0 128v512h128v-512h-128zM512 512v128h128v-128h-128zM128 640v128h384v-128h-384z" />
    <glyph glyph-name="sigma" unicode="&#x3c3;" horiz-adv-x="1024" 
d="M128 0v128h384v-128h-384zM0 128v512h128v-512h-128zM512 128v512h-384v128h640v-128h-128v-512h-128z" />
    <glyph glyph-name="tau" unicode="&#x3c4;" 
d="M256 0v640h-256v128h640v-128h-256v-640h-128z" />
    <glyph glyph-name="upsilon" unicode="&#x3c5;" 
d="M128 0v128h384v-128h-384zM0 128v640h128v-640h-128zM512 128v640h128v-640h-128z" />
    <glyph glyph-name="phi" unicode="&#x3c6;" 
d="M0 384v256h128v-256h-128zM512 384v256h128v-256h-128zM256 0v256h-128v128h128v256h-128v128h128v256h128v-256h128v-128h-128v-256h128v-128h-128v-256h-128z" />
    <glyph glyph-name="chi" unicode="&#x3c7;" 
d="M0 0v128h128v-128h-128zM512 0v128h128v-128h-128zM128 128v128h128v-128h-128zM384 128v128h128v-128h-128zM256 256v256h128v-256h-128zM128 512v128h128v-128h-128zM384 512v128h128v-128h-128zM0 640v128h128v-128h-128zM512 640v128h128v-128h-128z" />
    <glyph glyph-name="psi" unicode="&#x3c8;" 
d="M0 384v384h128v-384h-128zM256 0v256h-128v128h128v384h128v-384h128v-128h-128v-256h-128zM512 384v384h128v-384h-128z" />
    <glyph glyph-name="omega" unicode="&#x3c9;" 
d="M128 0v128h128v-128h-128zM384 0v128h128v-128h-128zM256 128v384h128v-384h-128zM0 128v640h128v-640h-128zM512 128v640h128v-640h-128z" />
    <glyph glyph-name="iotadieresis" unicode="&#x3ca;" horiz-adv-x="640" 
d="M256 0v128h128v-128h-128zM128 128v640h128v-640h-128zM0 896v128h128v-128h-128zM256 896v128h128v-128h-128z" />
    <glyph glyph-name="upsilondieresis" unicode="&#x3cb;" 
d="M128 0v128h384v-128h-384zM0 128v640h128v-640h-128zM512 128v640h128v-640h-128zM128 896v128h128v-128h-128zM384 896v128h128v-128h-128z" />
    <glyph glyph-name="omicrontonos" unicode="&#x3cc;" 
d="M128 0v128h384v-128h-384zM0 128v512h128v-512h-128zM512 128v512h128v-512h-128zM128 640v128h384v-128h-384zM256 896v256h128v-256h-128z" />
    <glyph glyph-name="upsilontonos" unicode="&#x3cd;" 
d="M128 0v128h384v-128h-384zM0 128v640h128v-640h-128zM512 128v640h128v-640h-128zM256 896v256h128v-256h-128z" />
    <glyph glyph-name="omegatonos" unicode="&#x3ce;" 
d="M128 0v128h128v-128h-128zM384 0v128h128v-128h-128zM256 128v512h128v-512h-128zM0 128v640h128v-640h-128zM512 128v640h128v-640h-128zM256 896v256h128v-256h-128z" />
    <glyph glyph-name="betasymbolgreek" unicode="&#x3d0;" horiz-adv-x="768" 
d="M128 0v128h256v-128h-256zM384 128v128h128v-128h-128zM0 128v768h128v-128h256v-128h-256v-256h256v-128h-256v-128h-128zM384 768v128h128v-128h-128zM128 896v128h256v-128h-256z" />
    <glyph glyph-name="theta1" unicode="&#x3d1;" 
d="M128 0v128h256v-128h-256zM0 128v128h128v-128h-128zM0 640v256h128v-256h-128zM384 128v384h-256v128h256v256h128v-256h128v-128h-128v-384h-128zM128 896v128h256v-128h-256z" />
    <glyph glyph-name="Upsilon1" unicode="&#x3d2;" horiz-adv-x="1024" 
d="M256 0v640h128v-640h-128zM128 640v128h128v-128h-128zM384 640v128h128v-128h-128zM0 768v256h128v-256h-128zM512 768v256h256v-128h-128v-128h-128z" />
    <glyph glyph-name="Upsilonacutehooksymbolgreek" unicode="&#x3d3;" horiz-adv-x="1024" 
d="M256 0v640h128v-640h-128zM128 640v128h128v-128h-128zM384 640v128h128v-128h-128zM0 768v256h128v-256h-128zM512 768v256h256v-128h-128v-128h-128zM256 1152v128h128v128h256v-128h-128v-128h-256z" />
    <glyph glyph-name="Upsilondieresishooksymbolgreek" unicode="&#x3d4;" horiz-adv-x="1024" 
d="M256 0v640h128v-640h-128zM128 640v128h128v-128h-128zM384 640v128h128v-128h-128zM0 768v256h128v-256h-128zM512 768v256h256v-128h-128v-128h-128zM128 1152v128h128v-128h-128zM384 1152v128h128v-128h-128z" />
    <glyph glyph-name="phi1" unicode="&#x3d5;" 
d="M0 128v512h128v-512h-128zM256 -256v256h-128v128h128v512h128v-512h128v-128h-128v-256h-128zM512 128v512h128v-512h-128zM128 640v128h128v-128h-128zM384 640v128h128v-128h-128z" />
    <glyph glyph-name="omega1" unicode="&#x3d6;" 
d="M128 0v128h128v-128h-128zM384 0v128h128v-128h-128zM256 128v384h128v-384h-128zM0 128v512h128v-512h-128zM512 128v512h128v-512h-128zM0 768v128h640v-128h-640z" />
    <glyph glyph-name="emdash" unicode="&#x2014;" 
d="M0 512v128h640v-128h-640z" />
    <glyph glyph-name="quoteleft" unicode="&#x2018;" horiz-adv-x="512" 
d="M0 640v256h128v-128h128v-128h-256zM128 896v128h128v-128h-128z" />
    <glyph glyph-name="quoteright" unicode="&#x2019;" horiz-adv-x="512" 
d="M0 640v128h128v-128h-128zM128 768v128h-128v128h256v-256h-128z" />
    <glyph glyph-name="quotesinglbase" unicode="&#x201a;" horiz-adv-x="512" 
d="M0 -128v128h128v-128h-128zM128 0v128h-128v128h256v-256h-128z" />
    <glyph glyph-name="quoteleftreversed" unicode="&#x201b;" horiz-adv-x="512" 
d="M128 640v128h128v-128h-128zM0 768v256h256v-128h-128v-128h-128z" />
    <glyph glyph-name="quotedblleft" unicode="&#x201c;" 
d="M0 640v256h128v-128h128v-128h-256zM384 640v256h128v-128h128v-128h-256zM128 896v128h128v-128h-128zM512 896v128h128v-128h-128z" />
    <glyph glyph-name="quotedblright" unicode="&#x201d;" 
d="M0 640v128h128v-128h-128zM384 640v128h128v-128h-128zM128 768v128h-128v128h256v-256h-128zM512 768v128h-128v128h256v-256h-128z" />
    <glyph glyph-name="quotedblbase" unicode="&#x201e;" 
d="M0 -128v128h128v-128h-128zM384 -128v128h128v-128h-128zM128 0v128h-128v128h256v-256h-128zM512 0v128h-128v128h256v-256h-128z" />
    <glyph glyph-name="dagger" unicode="&#x2020;" horiz-adv-x="640" 
d="M128 256v384h128v-384h-128zM0 640v128h128v-128h-128zM256 640v128h128v-128h-128zM128 768v256h128v-256h-128z" />
    <glyph glyph-name="bullet" unicode="&#x2022;" horiz-adv-x="640" 
d="M0 128v640h128v-128h128v-128h128v-128h-128v-128h-128v-128h-128z" />
    <glyph glyph-name="ellipsis" unicode="&#x2026;" horiz-adv-x="1280" 
d="M0 0v256h256v-256h-256zM384 0v256h256v-256h-256zM768 0v256h256v-256h-256z" />
    <glyph glyph-name="guilsinglleft" unicode="&#x2039;" horiz-adv-x="512" 
d="M128 256v128h128v-128h-128zM0 384v128h128v-128h-128zM128 512v128h128v-128h-128z" />
    <glyph glyph-name="guilsinglright" unicode="&#x203a;" horiz-adv-x="512" 
d="M0 256v128h128v-128h-128zM128 384v128h128v-128h-128zM0 512v128h128v-128h-128z" />
    <glyph glyph-name="Euro" unicode="&#x20ac;" horiz-adv-x="768" 
d="M256 0v128h256v-128h-256zM128 128v128h-128v128h128v256h-128v128h128v128h128v-128h256v-128h-256v-256h256v-128h-256v-128h-128zM256 896v128h256v-128h-256z" />
    <glyph glyph-name="fi" unicode="&#xfb01;" 
d="M128 0v640h-128v128h128v128h128v-128h384v-768h-128v640h-256v-640h-128zM256 896v128h384v-128h-384z" />
    <glyph glyph-name="fl" unicode="&#xfb02;" 
d="M128 0v640h-128v128h128v128h128v-128h128v-128h-128v-640h-128zM512 0v896h-256v128h384v-1024h-128z" />
    <glyph glyph-name="exclammonospace" unicode="&#xff01;" horiz-adv-x="512" 
d="M0 0v256h256v-256h-256zM0 512v512h256v-512h-256z" />
    <glyph glyph-name="quotedblmonospace" unicode="&#xff02;" horiz-adv-x="640" 
d="M0 640v384h128v-384h-128zM256 640v384h128v-384h-128z" />
    <glyph glyph-name="numbersignmonospace" unicode="&#xff03;" horiz-adv-x="1280" 
d="M640 384v256h-256v-256h256zM256 0v256h-256v128h256v256h-256v128h256v256h128v-256h256v256h128v-256h256v-128h-256v-256h256v-128h-256v-256h-128v256h-256v-256h-128z" />
    <glyph glyph-name="dollarmonospace" unicode="&#xff04;" horiz-adv-x="1152" 
d="M0 128v128h128v-128h-128zM768 128v256h128v-256h-128zM0 512v256h128v-256h-128zM768 640v128h128v-128h-128zM384 -128v128h-256v128h256v256h-256v128h256v256h-256v128h256v128h128v-128h256v-128h-256v-256h256v-128h-256v-256h256v-128h-256v-128h-128z" />
    <glyph glyph-name="percentmonospace" unicode="&#xff05;" horiz-adv-x="1152" 
d="M0 0v128h128v-128h-128zM768 0v128h-128v-128h128zM128 128v128h128v-128h-128zM512 -128v384h384v-384h-384zM256 256v128h128v-128h-128zM384 384v128h128v-128h-128zM512 512v128h128v-128h-128zM640 640v128h128v-128h-128zM256 768v128h-128v-128h128zM768 768v128
h128v-128h-128zM0 640v384h384v-384h-384z" />
    <glyph glyph-name="ampersandmonospace" unicode="&#xff06;" horiz-adv-x="1024" 
d="M128 0v128h384v-128h-384zM640 0v128h128v-128h-128zM512 128v128h128v-128h-128zM384 256v128h128v-128h-128zM640 256v128h128v-128h-128zM0 128v384h128v-384h-128zM256 384v128h128v-128h-128zM128 512v128h128v-128h-128zM256 640v128h128v-128h-128zM0 640v256h128
v-256h-128zM384 768v128h128v-128h-128zM128 896v128h256v-128h-256z" />
    <glyph glyph-name="quotesinglemonospace" unicode="&#xff07;" horiz-adv-x="512" 
d="M0 640v128h128v-128h-128zM128 768v128h-128v128h256v-256h-128z" />
    <glyph glyph-name="parenleftmonospace" unicode="&#xff08;" horiz-adv-x="640" 
d="M256 0v128h128v-128h-128zM128 128v128h128v-128h-128zM0 256v512h128v-512h-128zM128 768v128h128v-128h-128zM256 896v128h128v-128h-128z" />
    <glyph glyph-name="parenrightmonospace" unicode="&#xff09;" horiz-adv-x="640" 
d="M0 0v128h128v-128h-128zM128 128v128h128v-128h-128zM256 256v512h128v-512h-128zM128 768v128h128v-128h-128zM0 896v128h128v-128h-128z" />
    <glyph glyph-name="asteriskmonospace" unicode="&#xff0a;" horiz-adv-x="1152" 
d="M128 256v128h128v-128h-128zM384 256v128h128v-128h-128zM640 256v128h128v-128h-128zM256 384v128h-256v128h256v128h128v-128h128v128h128v-128h256v-128h-256v-128h-128v128h-128v-128h-128zM128 768v128h128v-128h-128zM384 768v128h128v-128h-128zM640 768v128h128
v-128h-128z" />
    <glyph glyph-name="plusmonospace" unicode="&#xff0b;" 
d="M256 256v256h-256v128h256v256h128v-256h256v-128h-256v-256h-128z" />
    <glyph glyph-name="commamonospace" unicode="&#xff0c;" horiz-adv-x="512" 
d="M0 -128v128h128v-128h-128zM128 0v128h-128v128h256v-256h-128z" />
    <glyph glyph-name="hyphenmonospace" unicode="&#xff0d;" horiz-adv-x="1152" 
d="M0 512v128h896v-128h-896z" />
    <glyph glyph-name="periodmonospace" unicode="&#xff0e;" horiz-adv-x="512" 
d="M0 0v256h256v-256h-256z" />
    <glyph glyph-name="slashmonospace" unicode="&#xff0f;" horiz-adv-x="1152" 
d="M0 0v128h128v-128h-128zM128 128v128h128v-128h-128zM256 256v128h128v-128h-128zM384 384v128h128v-128h-128zM512 512v128h128v-128h-128zM640 640v128h128v-128h-128zM768 768v128h128v-128h-128z" />
    <glyph glyph-name="zeromonospace" unicode="&#xff10;" horiz-adv-x="1152" 
d="M128 0v128h640v-128h-640zM256 384v128h128v-128h-128zM384 512v128h128v-128h-128zM512 640v128h128v-128h-128zM0 128v768h128v-512h128v-128h-128v-128h-128zM768 128v640h-128v128h-512v128h640v-128h128v-768h-128z" />
    <glyph glyph-name="onemonospace" unicode="&#xff11;" horiz-adv-x="1152" 
d="M128 640v128h128v-128h-128zM0 0v128h384v640h-128v128h128v128h128v-896h384v-128h-896z" />
    <glyph glyph-name="twomonospace" unicode="&#xff12;" horiz-adv-x="1152" 
d="M0 0v256h128v-128h768v-128h-896zM128 256v128h128v-128h-128zM256 384v128h256v-128h-256zM512 512v128h256v-128h-256zM0 768v128h128v-128h-128zM768 640v256h128v-256h-128zM128 896v128h640v-128h-640z" />
    <glyph glyph-name="threemonospace" unicode="&#xff13;" horiz-adv-x="1152" 
d="M128 0v128h640v-128h-640zM0 128v128h128v-128h-128zM768 128v384h128v-384h-128zM256 512v128h512v-128h-512zM0 768v128h128v-128h-128zM768 640v256h128v-256h-128zM128 896v128h640v-128h-640z" />
    <glyph glyph-name="fourmonospace" unicode="&#xff14;" horiz-adv-x="1152" 
d="M128 640v128h128v-128h-128zM256 768v128h128v-128h-128zM512 0v384h-512v256h128v-128h384v384h-128v128h256v-512h256v-128h-256v-384h-128z" />
    <glyph glyph-name="fivemonospace" unicode="&#xff15;" horiz-adv-x="1152" 
d="M128 0v128h640v-128h-640zM0 128v128h128v-128h-128zM768 128v384h128v-384h-128zM0 512v512h896v-128h-768v-256h640v-128h-768z" />
    <glyph glyph-name="sixmonospace" unicode="&#xff16;" horiz-adv-x="1152" 
d="M128 0v128h640v-128h-640zM768 128v384h128v-384h-128zM0 128v640h128v-128h640v-128h-640v-384h-128zM128 768v128h128v-128h-128zM256 896v128h512v-128h-512z" />
    <glyph glyph-name="sevenmonospace" unicode="&#xff17;" horiz-adv-x="1152" 
d="M384 0v384h128v-384h-128zM512 384v128h128v-128h-128zM640 512v128h128v-128h-128zM768 640v256h-768v128h896v-384h-128z" />
    <glyph glyph-name="eightmonospace" unicode="&#xff18;" horiz-adv-x="1152" 
d="M128 0v128h640v-128h-640zM0 128v384h128v-384h-128zM768 128v384h128v-384h-128zM128 512v128h640v-128h-640zM0 640v256h128v-256h-128zM768 640v256h128v-256h-128zM128 896v128h640v-128h-640z" />
    <glyph glyph-name="ninemonospace" unicode="&#xff19;" horiz-adv-x="1152" 
d="M128 0v128h512v-128h-512zM640 128v128h128v-128h-128zM0 512v384h128v-384h-128zM768 256v128h-640v128h640v384h128v-640h-128zM128 896v128h640v-128h-640z" />
    <glyph glyph-name="colonmonospace" unicode="&#xff1a;" horiz-adv-x="512" 
d="M0 128v256h256v-256h-256zM0 640v256h256v-256h-256z" />
    <glyph glyph-name="semicolonmonospace" unicode="&#xff1b;" horiz-adv-x="512" 
d="M0 0v128h128v-128h-128zM128 128v128h-128v128h256v-256h-128zM0 640v256h256v-256h-256z" />
    <glyph glyph-name="lessmonospace" unicode="&#xff1c;" horiz-adv-x="768" 
d="M384 0v128h128v-128h-128zM256 128v128h128v-128h-128zM128 256v128h128v-128h-128zM0 384v128h128v-128h-128zM128 512v128h128v-128h-128zM256 640v128h128v-128h-128zM384 768v128h128v-128h-128z" />
    <glyph glyph-name="equalmonospace" unicode="&#xff1d;" horiz-adv-x="1152" 
d="M0 128v128h896v-128h-896zM0 640v128h896v-128h-896z" />
    <glyph glyph-name="greatermonospace" unicode="&#xff1e;" horiz-adv-x="768" 
d="M0 0v128h128v-128h-128zM128 128v128h128v-128h-128zM256 256v128h128v-128h-128zM384 384v128h128v-128h-128zM256 512v128h128v-128h-128zM128 640v128h128v-128h-128zM0 768v128h128v-128h-128z" />
    <glyph glyph-name="questionmonospace" unicode="&#xff1f;" horiz-adv-x="1152" 
d="M384 0v128h128v-128h-128zM384 384v128h128v-128h-128zM512 512v128h256v-128h-256zM0 768v128h128v-128h-128zM768 640v256h128v-256h-128zM128 896v128h640v-128h-640z" />
    <glyph glyph-name="atmonospace" unicode="&#xff20;" horiz-adv-x="1152" 
d="M128 0v128h768v-128h-768zM256 384v256h128v-256h-128zM384 256v128h128v256h-128v128h256v-384h128v-128h-384zM0 128v768h128v-768h-128zM768 384v512h128v-512h-128zM128 896v128h640v-128h-640z" />
    <glyph glyph-name="Amonospace" unicode="&#xff21;" horiz-adv-x="1152" 
d="M0 0v256h128v-256h-128zM768 0v256h128v-256h-128zM128 256v256h128v256h128v-256h128v256h128v-256h128v-256h-128v128h-384v-128h-128zM384 768v256h128v-256h-128z" />
    <glyph glyph-name="Bmonospace" unicode="&#xff22;" horiz-adv-x="1152" 
d="M768 128v384h128v-384h-128zM768 640v256h128v-256h-128zM0 0v1024h768v-128h-640v-256h640v-128h-640v-384h640v-128h-768z" />
    <glyph glyph-name="Cmonospace" unicode="&#xff23;" horiz-adv-x="1152" 
d="M128 0v128h640v-128h-640zM768 128v128h128v-128h-128zM0 128v768h128v-768h-128zM768 768v128h128v-128h-128zM128 896v128h640v-128h-640z" />
    <glyph glyph-name="Dmonospace" unicode="&#xff24;" horiz-adv-x="1152" 
d="M768 128v768h128v-768h-128zM0 0v1024h768v-128h-640v-768h640v-128h-768z" />
    <glyph glyph-name="Emonospace" unicode="&#xff25;" horiz-adv-x="1152" 
d="M0 0v1024h896v-128h-768v-256h640v-128h-640v-384h768v-128h-896z" />
    <glyph glyph-name="Fmonospace" unicode="&#xff26;" horiz-adv-x="1152" 
d="M0 0v1024h896v-128h-768v-256h640v-128h-640v-512h-128z" />
    <glyph glyph-name="Gmonospace" unicode="&#xff27;" horiz-adv-x="1152" 
d="M128 0v128h512v-128h-512zM768 0v128h-128v128h128v256h-256v128h384v-640h-128zM0 128v768h128v-768h-128zM768 768v128h128v-128h-128zM128 896v128h640v-128h-640z" />
    <glyph glyph-name="Hmonospace" unicode="&#xff28;" horiz-adv-x="1152" 
d="M0 0v1024h128v-384h640v384h128v-1024h-128v512h-640v-512h-128z" />
    <glyph glyph-name="Imonospace" unicode="&#xff29;" 
d="M0 0v128h256v768h-256v128h640v-128h-256v-768h256v-128h-640z" />
    <glyph glyph-name="Jmonospace" unicode="&#xff2a;" horiz-adv-x="1152" 
d="M128 0v128h640v-128h-640zM0 128v256h128v-256h-128zM768 128v896h128v-896h-128z" />
    <glyph glyph-name="Kmonospace" unicode="&#xff2b;" horiz-adv-x="1152" 
d="M768 0v128h128v-128h-128zM640 128v128h128v-128h-128zM512 256v128h128v-128h-128zM384 384v128h128v-128h-128zM256 512v128h128v-128h-128zM384 640v128h128v-128h-128zM512 768v128h128v-128h-128zM0 0v1024h128v-512h128v-128h-128v-384h-128zM640 896v128h256v-128
h-256z" />
    <glyph glyph-name="Lmonospace" unicode="&#xff2c;" horiz-adv-x="1152" 
d="M0 0v1024h128v-896h768v-128h-896z" />
    <glyph glyph-name="Mmonospace" unicode="&#xff2d;" horiz-adv-x="1152" 
d="M384 0v256h128v-256h-128zM256 256v256h128v-256h-128zM512 256v256h128v-256h-128zM0 0v1024h128v-256h128v-256h-128v-512h-128zM768 0v512h-128v256h128v256h128v-1024h-128z" />
    <glyph glyph-name="Nmonospace" unicode="&#xff2e;" horiz-adv-x="1152" 
d="M512 384v128h128v-128h-128zM384 512v128h128v-128h-128zM256 640v128h128v-128h-128zM0 0v1024h128v-128h128v-128h-128v-768h-128zM768 0v256h-128v128h128v640h128v-1024h-128z" />
    <glyph glyph-name="Omonospace" unicode="&#xff2f;" horiz-adv-x="1152" 
d="M256 0v128h384v-128h-384zM128 128v128h128v-128h-128zM640 128v128h128v-128h-128zM0 256v512h128v-512h-128zM768 256v512h128v-512h-128zM128 768v128h128v-128h-128zM640 768v128h128v-128h-128zM256 896v128h384v-128h-384z" />
    <glyph glyph-name="Pmonospace" unicode="&#xff30;" horiz-adv-x="1152" 
d="M768 512v384h128v-384h-128zM0 0v1024h768v-128h-640v-384h640v-128h-640v-384h-128z" />
    <glyph glyph-name="Qmonospace" unicode="&#xff31;" horiz-adv-x="1152" 
d="M256 0v128h384v-128h-384zM768 0v128h128v-128h-128zM128 128v128h128v-128h-128zM640 128v128h128v-128h-128zM512 256v128h128v-128h-128zM384 384v128h128v-128h-128zM0 256v512h128v-512h-128zM768 256v512h128v-512h-128zM128 768v128h128v-128h-128zM640 768v128
h128v-128h-128zM256 896v128h384v-128h-384z" />
    <glyph glyph-name="Rmonospace" unicode="&#xff32;" horiz-adv-x="1152" 
d="M768 0v128h128v-128h-128zM640 128v128h128v-128h-128zM768 512v384h128v-384h-128zM0 0v1024h768v-128h-640v-384h640v-128h-128v-128h-128v128h-384v-384h-128z" />
    <glyph glyph-name="Smonospace" unicode="&#xff33;" horiz-adv-x="1152" 
d="M128 0v128h640v-128h-640zM0 128v128h128v-128h-128zM768 128v384h128v-384h-128zM128 512v128h640v-128h-640zM0 640v256h128v-256h-128zM768 768v128h128v-128h-128zM128 896v128h640v-128h-640z" />
    <glyph glyph-name="Tmonospace" unicode="&#xff34;" horiz-adv-x="1152" 
d="M384 0v896h-384v128h896v-128h-384v-896h-128z" />
    <glyph glyph-name="Umonospace" unicode="&#xff35;" horiz-adv-x="1152" 
d="M256 0v128h384v-128h-384zM128 128v128h128v-128h-128zM640 128v128h128v-128h-128zM0 256v768h128v-768h-128zM768 256v768h128v-768h-128z" />
    <glyph glyph-name="Vmonospace" unicode="&#xff36;" horiz-adv-x="1152" 
d="M384 0v128h128v-128h-128zM256 128v128h128v-128h-128zM512 128v128h128v-128h-128zM128 256v128h128v-128h-128zM640 256v128h128v-128h-128zM0 384v640h128v-640h-128zM768 384v640h128v-640h-128z" />
    <glyph glyph-name="Wmonospace" unicode="&#xff37;" horiz-adv-x="1152" 
d="M128 0v256h128v-256h-128zM640 0v256h128v-256h-128zM256 256v256h128v-256h-128zM512 256v256h128v-256h-128zM384 512v256h128v-256h-128zM0 256v768h128v-768h-128zM768 256v768h128v-768h-128z" />
    <glyph glyph-name="Xmonospace" unicode="&#xff38;" horiz-adv-x="1152" 
d="M0 0v128h128v-128h-128zM768 0v128h128v-128h-128zM128 128v128h128v-128h-128zM640 128v128h128v-128h-128zM256 256v128h128v-128h-128zM512 256v128h128v-128h-128zM384 384v256h128v-256h-128zM256 640v128h128v-128h-128zM512 640v128h128v-128h-128zM128 768v128
h128v-128h-128zM640 768v128h128v-128h-128zM0 896v128h128v-128h-128zM768 896v128h128v-128h-128z" />
    <glyph glyph-name="Ymonospace" unicode="&#xff39;" horiz-adv-x="1152" 
d="M384 0v512h128v-512h-128zM256 512v128h128v-128h-128zM512 512v128h128v-128h-128zM128 640v128h128v-128h-128zM640 640v128h128v-128h-128zM0 768v256h128v-256h-128zM768 768v256h128v-256h-128z" />
    <glyph glyph-name="Zmonospace" unicode="&#xff3a;" horiz-adv-x="1152" 
d="M0 0v256h128v-128h768v-128h-896zM128 256v128h128v-128h-128zM256 384v128h128v-128h-128zM384 512v128h128v-128h-128zM512 640v128h128v-128h-128zM640 768v128h-640v128h896v-128h-128v-128h-128z" />
    <glyph glyph-name="bracketleftmonospace" unicode="&#xff3b;" horiz-adv-x="640" 
d="M0 0v1024h384v-128h-256v-768h256v-128h-384z" />
    <glyph glyph-name="backslashmonospace" unicode="&#xff3c;" horiz-adv-x="1152" 
d="M768 0v128h128v-128h-128zM640 128v128h128v-128h-128zM512 256v128h128v-128h-128zM384 384v128h128v-128h-128zM256 512v128h128v-128h-128zM128 640v128h128v-128h-128zM0 768v128h128v-128h-128z" />
    <glyph glyph-name="bracketrightmonospace" unicode="&#xff3d;" horiz-adv-x="640" 
d="M0 0v128h256v768h-256v128h384v-1024h-384z" />
    <glyph glyph-name="asciicircummonospace" unicode="&#xff3e;" horiz-adv-x="1152" 
d="M0 640v128h128v128h128v128h384v-128h128v-128h128v-128h-256v128h-128v128h-128v-128h-128v-128h-256z" />
    <glyph glyph-name="underscoremonospace" unicode="&#xff3f;" horiz-adv-x="1152" 
d="M0 0v128h896v-128h-896z" />
    <glyph glyph-name="gravemonospace" unicode="&#xff40;" horiz-adv-x="768" 
d="M256 640v128h-128v128h-128v128h256v-128h128v-128h128v-128h-256z" />
  </font>
</defs>
</svg>
