<svg xmlns="http://www.w3.org/2000/svg" viewBox="0 -0.5 428 428" shape-rendering="crispEdges">
<metadata>Made with Pixels to Svg https://codepen.io/shshaw/pen/XbxvNj</metadata>
<path stroke="#000000" d="M172 5h80M172 6h80M172 7h80M172 8h80M172 9h80M157 10h110M157 11h110M157 12h110M157 13h110M157 14h110M142 15h140M142 16h140M142 17h140M142 18h140M142 19h140M132 20h160M132 21h160M132 22h160M132 23h160M132 24h160M122 25h180M122 26h180M122 27h180M122 28h180M122 29h180M112 30h200M112 31h200M112 32h200M112 33h200M112 34h200M107 35h210M107 36h210M107 37h210M107 38h210M107 39h210M97 40h225M97 41h225M97 42h225M97 43h225M97 44h225M92 45h240M92 46h240M92 47h240M92 48h240M92 49h240M87 50h250M87 51h250M87 52h250M87 53h250M87 54h250M82 55h260M82 56h260M82 57h260M82 58h260M82 59h260M77 60h270M77 61h270M77 62h270M77 63h270M77 64h270M72 65h280M72 66h280M72 67h280M72 68h280M72 69h280M67 70h285M67 71h285M67 72h285M67 73h285M67 74h285M67 75h290M67 76h290M67 77h290M67 78h290M67 79h290M62 80h300M62 81h300M62 82h300M62 83h300M62 84h300M57 85h305M57 86h305M57 87h305M57 88h305M57 89h305M57 90h310M57 91h310M57 92h310M57 93h310M57 94h310M52 95h315M52 96h315M52 97h315M52 98h315M52 99h315M52 100h320M52 101h320M52 102h320M52 103h320M52 104h320M52 105h320M52 106h320M52 107h320M52 108h320M52 109h320M47 110h330M47 111h330M47 112h330M47 113h330M47 114h330M47 115h330M47 116h330M47 117h330M47 118h330M47 119h330M42 120h340M42 121h340M42 122h340M42 123h340M42 124h340M42 125h340M42 126h340M42 127h340M42 128h340M42 129h340M42 130h340M42 131h340M42 132h340M42 133h340M42 134h340M42 135h340M42 136h340M42 137h340M42 138h340M42 139h340M42 140h340M42 141h340M42 142h340M42 143h340M42 144h340M42 145h340M42 146h340M42 147h340M42 148h340M42 149h340M42 150h340M42 151h340M42 152h340M42 153h340M42 154h340M42 155h340M42 156h340M42 157h340M42 158h340M42 159h340M37 160h345M37 161h345M37 162h345M37 163h345M37 164h345M37 165h345M37 166h345M37 167h345M37 168h345M37 169h345M32 170h350M32 171h350M32 172h350M32 173h350M32 174h350M32 175h355M32 176h355M32 177h355M32 178h355M32 179h355M27 180h360M27 181h360M27 182h360M27 183h360M27 184h360M27 185h360M27 186h360M27 187h360M27 188h360M27 189h360M27 190h360M27 191h360M27 192h360M27 193h360M27 194h360M27 195h360M27 196h360M27 197h360M27 198h360M27 199h360M27 200h360M27 201h360M27 202h360M27 203h360M27 204h360M27 205h360M27 206h360M27 207h360M27 208h360M27 209h360M27 210h360M27 211h360M27 212h360M27 213h360M27 214h360M27 215h360M27 216h360M27 217h360M27 218h360M27 219h360M32 220h360M32 221h360M32 222h360M32 223h360M32 224h360M42 225h345M42 226h345M42 227h345M42 228h345M42 229h345M47 230h340M47 231h340M47 232h340M47 233h340M47 234h340M47 235h40M117 235h190M337 235h45M47 236h40M117 236h190M337 236h45M47 237h40M117 237h190M337 237h45M47 238h40M117 238h190M337 238h45M47 239h40M117 239h190M337 239h45M47 240h35M127 240h170M347 240h30M47 241h35M127 241h170M347 241h30M47 242h35M127 242h170M347 242h30M47 243h35M127 243h170M347 243h30M47 244h35M127 244h170M347 244h30M52 245h25M137 245h150M347 245h25M52 246h25M137 246h150M347 246h25M52 247h25M137 247h150M347 247h25M52 248h25M137 248h150M347 248h25M52 249h25M137 249h150M347 249h25M52 250h25M142 250h140M347 250h30M52 251h25M142 251h140M347 251h30M52 252h25M142 252h140M347 252h30M52 253h25M142 253h140M347 253h30M52 254h25M142 254h140M347 254h30M57 255h15M147 255h135M352 255h20M57 256h15M147 256h135M352 256h20M57 257h15M147 257h135M352 257h20M57 258h15M147 258h135M352 258h20M57 259h15M147 259h135M352 259h20M52 260h20M147 260h130M352 260h15M52 261h20M147 261h130M352 261h15M52 262h20M147 262h130M352 262h15M52 263h20M147 263h130M352 263h15M52 264h20M147 264h130M352 264h15M52 265h20M147 265h130M352 265h10M52 266h20M147 266h130M352 266h10M52 267h20M147 267h130M352 267h10M52 268h20M147 268h130M352 268h10M52 269h20M147 269h130M352 269h10M47 270h25M152 270h120M352 270h10M47 271h25M152 271h120M352 271h10M47 272h25M152 272h120M352 272h10M47 273h25M152 273h120M352 273h10M47 274h25M152 274h120M352 274h10M47 275h25M152 275h120M352 275h20M47 276h25M152 276h120M352 276h20M47 277h25M152 277h120M352 277h20M47 278h25M152 278h120M352 278h20M47 279h25M152 279h120M352 279h20M42 280h30M152 280h120M352 280h25M42 281h30M152 281h120M352 281h25M42 282h30M152 282h120M352 282h25M42 283h30M152 283h120M352 283h25M42 284h30M152 284h120M352 284h25M37 285h35M152 285h120M347 285h30M37 286h35M152 286h120M347 286h30M37 287h35M152 287h120M347 287h30M37 288h35M152 288h120M347 288h30M37 289h35M152 289h120M347 289h30M37 290h40M147 290h130M347 290h35M37 291h40M147 291h130M347 291h35M37 292h40M147 292h130M347 292h35M37 293h40M147 293h130M347 293h35M37 294h40M147 294h130M347 294h35M37 295h45M137 295h150M342 295h45M37 296h45M137 296h150M342 296h45M37 297h45M137 297h150M342 297h45M37 298h45M137 298h150M342 298h45M37 299h45M137 299h150M342 299h45M37 300h60M132 300h160M322 300h65M37 301h60M132 301h160M322 301h65M37 302h60M132 302h160M322 302h65M37 303h60M132 303h160M322 303h65M37 304h60M132 304h160M322 304h65M37 305h350M37 306h350M37 307h350M37 308h350M37 309h350M42 310h345M42 311h345M42 312h345M42 313h345M42 314h345M42 315h340M42 316h340M42 317h340M42 318h340M42 319h340M47 320h335M47 321h335M47 322h335M47 323h335M47 324h335M47 325h330M47 326h330M47 327h330M47 328h330M47 329h330M52 330h155M213 330h4M222 330h155M52 331h155M213 331h4M222 331h155M52 332h155M213 332h4M222 332h155M52 333h155M213 333h4M222 333h155M52 334h155M213 334h4M222 334h155M52 335h155M213 335h4M222 335h155M52 336h155M213 336h4M222 336h155M52 337h155M213 337h4M222 337h155M52 338h155M213 338h4M222 338h155M52 339h155M213 339h4M222 339h155M57 340h145M222 340h150M57 341h145M222 341h150M57 342h145M222 342h150M57 343h145M222 343h150M57 344h145M222 344h150M62 345h140M222 345h150M62 346h140M222 346h150M62 347h140M222 347h150M62 348h140M222 348h150M62 349h140M222 349h150M72 350h130M227 350h135M72 351h130M227 351h135M72 352h130M227 352h135M72 353h130M227 353h135M72 354h130M227 354h135M77 355h125M227 355h130M77 356h125M227 356h130M77 357h125M227 357h130M77 358h125M227 358h130M77 359h125M227 359h130M82 360h115M232 360h110M82 361h115M232 361h110M82 362h115M232 362h110M82 363h115M232 363h110M82 364h115M232 364h110M82 365h115M232 365h105M82 366h115M232 366h105M82 367h115M232 367h105M82 368h115M232 368h105M82 369h115M232 369h105M87 370h110M232 370h105M87 371h110M232 371h105M87 372h110M232 372h105M87 373h110M232 373h105M87 374h110M232 374h105M87 375h110M237 375h100M87 376h110M237 376h100M87 377h110M237 377h100M87 378h110M237 378h100M87 379h110M237 379h100M87 380h105M237 380h95M87 381h105M237 381h95M87 382h105M237 382h95M87 383h105M237 383h95M87 384h105M237 384h95M92 385h100M242 385h90M92 386h100M242 386h90M92 387h100M242 387h90M92 388h100M242 388h90M92 389h100M242 389h90M92 390h100M242 390h85M92 391h100M242 391h85M92 392h100M242 392h85M92 393h100M242 393h85M92 394h100M242 394h85M92 395h10M107 395h80M242 395h85M92 396h10M107 396h80M242 396h85M92 397h10M107 397h80M242 397h85M92 398h10M107 398h80M242 398h85M92 399h10M107 399h80M242 399h85M97 400h5M112 400h75M242 400h80M97 401h5M112 401h75M242 401h80M97 402h5M112 402h75M242 402h80M97 403h5M112 403h75M242 403h80M97 404h5M112 404h75M242 404h80M112 405h75M247 405h60M312 405h5M112 406h75M247 406h60M312 406h5M112 407h75M247 407h60M312 407h5M112 408h75M247 408h60M312 408h5M112 409h75M247 409h60M312 409h5M117 410h65M247 410h55M307 410h5M117 411h65M247 411h55M307 411h5M117 412h65M247 412h55M307 412h5M117 413h65M247 413h55M307 413h5M117 414h65M247 414h55M307 414h5M127 415h20M157 415h20M252 415h25M282 415h5M127 416h20M157 416h20M252 416h25M282 416h5M127 417h20M157 417h20M252 417h25M282 417h5M127 418h20M157 418h20M252 418h25M282 418h5M127 419h20M157 419h20M252 419h25M282 419h5" />
</svg>